<svg width="916" height="241" viewBox="0 0 916 241" fill="none" xmlns="http://www.w3.org/2000/svg">
<rect x="1.22553" y="0.707557" width="11.0031" height="121.756" transform="matrix(0.966091 -0.258204 0.259436 0.96576 688.785 3.69808)" fill="white" stroke="#393939" stroke-width="2"/>
<path d="M707.256 25.3203L733.349 18.3465C738.151 17.0631 743.089 19.9141 744.379 24.7145L758.609 77.6888C759.899 82.4891 757.052 87.421 752.25 88.7044L726.156 95.6783L707.256 25.3203Z" fill="white" stroke="#393939" stroke-width="2"/>
<path d="M627.883 38.2878C626.593 33.4875 629.441 28.5556 634.243 27.2722L692.224 11.7756L719.67 113.941L661.688 129.437C656.886 130.721 651.947 127.87 650.658 123.069L627.883 38.2878Z" fill="white" stroke="#393939" stroke-width="2"/>
<path d="M637.459 73.9336L662.118 67.343C666.111 66.2758 670.217 68.6464 671.289 72.6378C672.362 76.6292 669.994 80.7299 666.001 81.797L641.342 88.3877L637.459 73.9336Z" fill="white" stroke="#393939" stroke-width="2"/>
<rect x="1.22553" y="0.707557" width="13.0036" height="14.9665" transform="matrix(0.966091 -0.258204 0.259436 0.96576 748.184 43.608)" fill="white" stroke="#393939" stroke-width="2"/>
<path d="M588.148 63.8667C587.219 60.4077 589.271 56.8538 592.731 55.929L629.951 45.9815L633.316 58.5079L596.096 68.4554C592.636 69.3802 589.077 67.3258 588.148 63.8667Z" fill="white" stroke="#393939" stroke-width="2"/>
<path d="M603.683 121.698C602.754 118.239 604.806 114.685 608.266 113.761L645.486 103.813L648.851 116.339L611.631 126.287C608.171 127.212 604.613 125.157 603.683 121.698Z" fill="white" stroke="#393939" stroke-width="2"/>
<path d="M763.857 43.2488L912.671 3.47591" stroke="#393939" stroke-width="2"/>
<path d="M766.188 51.9236L915.001 12.1507" stroke="#393939" stroke-width="2"/>
<path d="M740.865 54.0427C741.937 58.0321 739.564 62.1364 735.559 63.2068C731.554 64.2771 727.442 61.9062 726.37 57.9168C725.298 53.9274 727.672 49.823 731.676 48.7527C735.681 47.6823 739.794 50.0533 740.865 54.0427Z" stroke="#393939" stroke-width="2"/>
<line y1="-1" x2="14.1209" y2="-1" transform="matrix(-0.500957 0.865472 -0.866577 -0.499043 736.541 49.5164)" stroke="#393939" stroke-width="2"/>
<rect x="-1.22553" y="-0.707557" width="11.0031" height="121.756" transform="matrix(-0.966091 0.258203 -0.259436 -0.96576 291.158 221.224)" fill="white" stroke="#393939" stroke-width="2"/>
<path d="M208.745 218.155L182.652 225.129C177.85 226.413 172.912 223.562 171.622 218.761L157.392 165.787C156.102 160.987 158.95 156.055 163.752 154.771L189.845 147.798L208.745 218.155Z" fill="white" stroke="#393939" stroke-width="2"/>
<path d="M279.823 216.721L227.638 230.668C219.635 232.807 211.404 228.055 209.255 220.055L189.593 146.862C187.444 138.862 192.19 130.642 200.193 128.503L252.378 114.555L279.823 216.721Z" fill="white" stroke="#393939" stroke-width="2"/>
<rect x="-1.22553" y="-0.707557" width="13.0036" height="14.9665" transform="matrix(-0.966091 0.258203 -0.259436 -0.96576 165.083 199.134)" fill="white" stroke="#393939" stroke-width="2"/>
<path d="M152.145 200.227L3.33105 240" stroke="#393939" stroke-width="2"/>
<path d="M149.815 191.552L1.00097 231.325" stroke="#393939" stroke-width="2"/>
<path d="M175.137 189.433C174.065 185.444 176.438 181.34 180.443 180.269C184.448 179.199 188.56 181.57 189.632 185.559C190.704 189.549 188.331 193.653 184.326 194.723C180.321 195.794 176.208 193.423 175.137 189.433Z" stroke="#393939" stroke-width="2"/>
<line y1="-1" x2="14.1209" y2="-1" transform="matrix(0.500957 -0.865472 0.866577 0.499044 179.461 193.959)" stroke="#393939" stroke-width="2"/>
<line y1="-1" x2="43.9134" y2="-1" transform="matrix(0.259436 0.96576 -0.966091 0.258203 220.078 156.244)" stroke="#393939" stroke-width="2"/>
<line y1="-1" x2="43.9134" y2="-1" transform="matrix(0.259436 0.96576 -0.966091 0.258203 227.809 154.178)" stroke="#393939" stroke-width="2"/>
<line y1="-1" x2="43.5065" y2="-1" transform="matrix(0.729715 -0.683751 0.685607 0.727972 486.658 84.8176)" stroke="#998242" stroke-width="2"/>
<line y1="-1" x2="40.2507" y2="-1" transform="matrix(-0.732147 -0.681146 0.683008 -0.730411 520.353 188.254)" stroke="#998242" stroke-width="2"/>
<line y1="-1" x2="52.8685" y2="-1" transform="matrix(-0.885731 -0.464198 0.466058 -0.884754 396.972 97.8198)" stroke="#998242" stroke-width="2"/>
<line y1="-1" x2="39.8872" y2="-1" transform="matrix(-0.65664 0.754204 -0.755861 -0.654733 412.846 161.944)" stroke="#998242" stroke-width="2"/>
<line y1="-1" x2="44.4941" y2="-1" transform="matrix(-0.927573 0.373642 -0.375285 -0.926909 398.56 144.528)" stroke="#998242" stroke-width="2"/>
<line y1="-1" x2="36.7516" y2="-1" transform="matrix(-0.999802 -0.0199222 0.0200241 -0.999799 390.857 120.719)" stroke="#998242" stroke-width="2"/>
<line y1="-1" x2="50.4411" y2="-1" transform="matrix(-0.975561 0.219727 -0.220796 -0.97532 539.835 97.8198)" stroke="#998242" stroke-width="2"/>
<line y1="-1" x2="40.7556" y2="-1" transform="matrix(-0.993185 -0.116548 0.117136 -0.993116 534.279 142.153)" stroke="#998242" stroke-width="2"/>
</svg>
