<?xml version="1.0" encoding="utf-8"?>
<!-- Generator: Adobe Illustrator 23.0.1, SVG Export Plug-In . SVG Version: 6.00 Build 0)  -->
<svg version="1.1" xmlns="http://www.w3.org/2000/svg" xmlns:xlink="http://www.w3.org/1999/xlink" x="0px" y="0px"
	 viewBox="0 0 50 50" style="enable-background:new 0 0 50 50;" xml:space="preserve">
<style type="text/css">
	.st0{display:none;}
	.st1{display:inline;fill:none;}
</style>
<g id="White">
</g>
<g id="Black">
	<path d="M40.1,19.4c0.3,0.3,0.4,0.6,0.4,1c0,0.3-0.1,0.7-0.3,0.9L25.4,35.9l-13-12.9L27.1,8.4l0,0c0.5-0.5,1.3-0.5,1.9,0L40.1,19.4
		l0.8-0.8l0.6-0.6l-11-11c-1.3-1.3-3.4-1.3-4.7,0l0,0L7,25.6c-0.6,0.6-1,1.5-1,2.4c0,0.9,0.3,1.7,1,2.4l10.6,10.5V40h1.8l0,0l-11-11
		C8.1,28.7,8,28.4,8,28c0-0.3,0.1-0.7,0.3-0.9l2.8-2.8l13,12.9L21.3,40l0,0l2.8,0l17.3-17.3c0.6-0.6,1-1.5,1-2.4
		c0-0.9-0.3-1.7-1-2.4"/>
	<g>
		<polygon points="24.1,40 21.3,40 20.7,40 20.7,42 42.8,42 42.8,40 		"/>
		<rect x="14.4" y="40" width="2" height="2"/>
		<polygon points="17.5,40.9 17.5,42 19.5,42 19.5,40 19.3,40 17.5,40 		"/>
	</g>
</g>
<g id="Grid" class="st0">
	<path class="st1" d="M29,8.3c-0.5-0.5-1.3-0.4-1.9,0l0,0L12.5,22.9l13,12.9l14.7-14.6c0.2-0.2,0.3-0.6,0.3-0.9c0-0.4-0.1-0.7-0.4-1
		l1.4-1.4l-1.4,1.4L29,8.3z"/>
</g>
</svg>
