<?xml version="1.0" encoding="utf-8"?>
<!-- Generator: Adobe Illustrator 23.0.1, SVG Export Plug-In . SVG Version: 6.00 Build 0)  -->
<svg version="1.1" id="Black" xmlns="http://www.w3.org/2000/svg" xmlns:xlink="http://www.w3.org/1999/xlink" x="0px" y="0px"
	 viewBox="0 0 50 50" style="enable-background:new 0 0 50 50;" xml:space="preserve">
<path d="M12,4v42h26V4H12z M14,14h6v6h-6V14z M14,22h6v6h-6V22z M14,30h6v6h-6V30z M36,44H14v-6h22V44z M28,22v6h-6v-6H28z M22,20
	v-6h6v6H22z M28,30v6h-6v-6H28z M36,36h-6v-6h6V36z M36,28h-6v-6h6V28z M36,20h-6v-6h6V20z M36,12H14V6h22V12z M30,10H20V8h10V10z
	 M28,42H22v-2H28V42z"/>
</svg>
