<?xml version="1.0" encoding="utf-8"?>
<!-- Generator: Adobe Illustrator 23.0.1, SVG Export Plug-In . SVG Version: 6.00 Build 0)  -->
<svg version="1.1" id="Black" xmlns="http://www.w3.org/2000/svg" xmlns:xlink="http://www.w3.org/1999/xlink" x="0px" y="0px"
	 viewBox="0 0 50 50" style="enable-background:new 0 0 50 50;" xml:space="preserve">
<path d="M36,38V10h-2v16h-5.9L20,12H2v24h4.1c0.5,2.3,2.5,4,4.9,4s4.4-1.7,4.9-4h4.2c0.5,2.3,2.5,4,4.9,4s4.4-1.7,4.9-4H34v4h14v-2
	H36z M8,14h10.8l6.9,12h-9.5L14,22H8V14z M11,38c-1.7,0-3-1.3-3-3s1.3-3,3-3s3,1.3,3,3S12.7,38,11,38z M25,38c-1.7,0-3-1.3-3-3
	s1.3-3,3-3s3,1.3,3,3S26.7,38,25,38z M34,34h-4.1c-0.5-2.3-2.5-4-4.9-4s-4.4,1.7-4.9,4h-4.2c-0.5-2.3-2.5-4-4.9-4s-4.4,1.7-4.9,4H4
	V14h2v10h6.8l2.3,4H34V34z M46,14h-8v22h8V14z M44,34h-4V16h4V34z"/>
</svg>
