<?xml version="1.0" encoding="utf-8"?>
<!-- Generator: Adobe Illustrator 23.0.1, SVG Export Plug-In . SVG Version: 6.00 Build 0)  -->
<svg version="1.1" id="Black" xmlns="http://www.w3.org/2000/svg" xmlns:xlink="http://www.w3.org/1999/xlink" x="0px" y="0px"
	 viewBox="0 0 50 50" style="enable-background:new 0 0 50 50;" xml:space="preserve">
<path d="M42.3,24l1.7,1l-4,7l-1.7-1L42.3,24z M27.9,7l-1.7-1l-4,7l1.7,1L27.9,7z M35.9,16l-1.7-1l-4,7l1.7,1L35.9,16z M19.8,16
	l-1.7-1l-4,7l1.7,1L19.8,16z M44,7l-1.7-1l-4,7l1.7,1L44,7z M27.9,25l-1.7-1l-4,7l1.7,1L27.9,25z M6,44h38v-2H6V44z M11.8,25l-1.7-1
	l-4,7l1.7,1L11.8,25z M11.8,7l-1.7-1l-4,7l1.7,1L11.8,7z M24,40h20v-2H24V40z M21.4,36H32v-2H20.3L18,38H6v2h13.2L21.4,36z"/>
</svg>
