<?xml version="1.0" encoding="utf-8"?>
<!-- Generator: Adobe Illustrator 23.0.1, SVG Export Plug-In . SVG Version: 6.00 Build 0)  -->
<svg version="1.1" id="Black" xmlns="http://www.w3.org/2000/svg" xmlns:xlink="http://www.w3.org/1999/xlink" x="0px" y="0px"
	 viewBox="0 0 50 50" style="enable-background:new 0 0 50 50;" xml:space="preserve">
<path d="M25,42c1.7,0,3-1.3,3-3s-1.3-3-3-3s-3,1.3-3,3S23.3,42,25,42z M24,38h2v2h-2V38z M30,10H20V8h10V10z M12,4v42h26V4H12z
	 M36,44H14V34h22V44z M36,32H14V14h22V32z M36,12H14V6h22V12z M28.4,27.1l-1.1,1.6c-1.4-1-3.2-1-4.6,0l-1.1-1.6
	C23.6,25.6,26.3,25.6,28.4,27.1z M17.4,23.2L16,21.8c4.9-4.9,13-4.9,17.9,0l-1.4,1.4C28.4,19.1,21.6,19.1,17.4,23.2z M31.2,24.4
	l-1.4,1.5c-2.7-2.5-6.9-2.5-9.6,0l-1.4-1.5C22.3,21.2,27.7,21.2,31.2,24.4z"/>
</svg>
