<?xml version="1.0" encoding="utf-8"?>
<!-- Generator: Adobe Illustrator 23.0.1, SVG Export Plug-In . SVG Version: 6.00 Build 0)  -->
<svg version="1.1" id="Black" xmlns="http://www.w3.org/2000/svg" xmlns:xlink="http://www.w3.org/1999/xlink" x="0px" y="0px"
	 viewBox="0 0 50 50" style="enable-background:new 0 0 50 50;" xml:space="preserve">
<path d="M14,40h6v-8h10v8h6v-8h4v-6h-6.5l-3.2-12H32v-2h-2.3l-2.1-8h-5.1l-2.1,8H18v2h1.8l-3.2,12H10v6h4V40z M18,38h-2v-6h2V38z
	 M34,38h-2v-6h2V38z M30.5,22.7l-4.1-4.1l2.4-2.4L30.5,22.7z M24,6h2.1l1.6,6h-5.3L24,6z M28.2,14L25,17.2L21.8,14H28.2z M21.2,16.2
	l2.4,2.4l-4.1,4.1L21.2,16.2z M25,20l6,6H19L25,20z M12,30v-2h26v2H12z M41.4,46.4L40,47.8l-3-3l-3,3l-3-3l-3,3l-3-3l-3,3l-3-3l-3,3
	l-3-3l-3,3l-1.4-1.4L13,42l3,3l3-3l3,3l3-3l3,3l3-3l3,3l3-3L41.4,46.4z"/>
</svg>
