<?xml version="1.0" encoding="utf-8"?>
<!-- Generator: Adobe Illustrator 23.0.1, SVG Export Plug-In . SVG Version: 6.00 Build 0)  -->
<svg version="1.1" id="Black" xmlns="http://www.w3.org/2000/svg" xmlns:xlink="http://www.w3.org/1999/xlink" x="0px" y="0px"
	 viewBox="0 0 50 50" style="enable-background:new 0 0 50 50;" xml:space="preserve">
<path d="M9,38c-1.7,0-3,1.3-3,3s1.3,3,3,3s3-1.3,3-3S10.7,38,9,38z M10,42H8v-2h2V42z M44,43C43.2,23,27,6.8,7,6L6,6v8l1,0
	c15.8,0.5,28.5,13.2,29,29l0,1h8L44,43z M37.9,42C36.9,26,24,13.1,8,12.1v-4C26.1,9.3,40.7,23.9,41.9,42H37.9z M7,22l-1,0v8l1,0
	c7.1,0.2,12.8,6,13,13l0,1h8l0-1C27.7,31.5,18.5,22.3,7,22z M21.9,42C21.2,34.7,15.3,28.8,8,28.1v-4c9.6,0.7,17.2,8.3,17.9,17.9
	H21.9z"/>
</svg>
