<?xml version="1.0" encoding="utf-8"?>
<!-- Generator: Adobe Illustrator 23.0.1, SVG Export Plug-In . SVG Version: 6.00 Build 0)  -->
<svg version="1.1" id="Black" xmlns="http://www.w3.org/2000/svg" xmlns:xlink="http://www.w3.org/1999/xlink" x="0px" y="0px"
	 viewBox="0 0 50 50" style="enable-background:new 0 0 50 50;" xml:space="preserve">
<path d="M40.1,20H38v-6l-8,4.6V14l-8,4.6l0-4.6l-8,4.6V6H6v38h32v-8h4v8h2V23.9C44,21.8,42.2,20,40.1,20z M28,17.5V24h-6l0-3.1
	L28,17.5z M14,20.9l6-3.5l0,6.5h-6V20.9z M8,8h4v2H8V8z M36,42H8V12h4v14h24V42z M36,24h-6v-3.1l6-3.5V24z M42,34h-4V22h2.1
	c1.1,0,1.9,0.9,1.9,1.9V34z M32,32h-2v-2h2V32z M16,32h-2v-2h2V32z M32,36h-2v-2h2V36z M16,36h-2v-2h2V36z M24,36h-2v-2h2V36z
	 M20,32h-2v-2h2V32z M28,32h-2v-2h2V32z M20,36h-2v-2h2V36z M28,36h-2v-2h2V36z M24,32h-2v-2h2V32z"/>
</svg>
