<?xml version="1.0" encoding="utf-8"?>
<!-- Generator: Adobe Illustrator 23.0.1, SVG Export Plug-In . SVG Version: 6.00 Build 0)  -->
<svg version="1.1" id="Black" xmlns="http://www.w3.org/2000/svg" xmlns:xlink="http://www.w3.org/1999/xlink" x="0px" y="0px"
	 viewBox="0 0 50 50" style="enable-background:new 0 0 50 50;" xml:space="preserve">
<path d="M42,34V20h-4V6H22v8H8v20H6v10h6v-4h10v4h6v-4h10v4h6V34H42z M24,8h12v12H24V8z M24,22h16v12H24V22z M10,16h12v18H10V16z
	 M10,42H8v-2h2V42z M26,42h-2v-2h2V42z M42,42h-2v-2h2V42z M42,38H8v-2h34V38z M28,16h6v2h-6V16z M28,12h6v2h-6V12z M32,30h6v2h-6
	V30z M14,26h6v2h-6V26z M14,30h6v2h-6V30z M32,26h6v2h-6V26z"/>
</svg>
