<?xml version="1.0" encoding="utf-8"?>
<!-- Generator: Adobe Illustrator 23.0.1, SVG Export Plug-In . SVG Version: 6.00 Build 0)  -->
<svg version="1.1" id="Black" xmlns="http://www.w3.org/2000/svg" xmlns:xlink="http://www.w3.org/1999/xlink" x="0px" y="0px"
	 viewBox="0 0 50 50" style="enable-background:new 0 0 50 50;" xml:space="preserve">
<path d="M44,34V14H13.3L9.9,8L8.1,9l3.9,6.7v17.6l-3.6,6.3l0,0C8.2,40,8,40.5,8,41c0,1.7,1.3,3,3,3s3-1.3,3-3v0v-1h18v1v0
	c0,1.7,1.3,3,3,3s3-1.3,3-3s-1.3-3-3-3v0H11.6l2.3-4H44z M42,16v16h-8V16H42z M32,16v16h-8V16H32z M14,16h8v16h-8V16z M34,41v-1h2v2
	h-2V41z M12,40v1v1h-2v-2H12z"/>
</svg>
