<?xml version="1.0" encoding="utf-8"?>
<!-- Generator: Adobe Illustrator 23.0.1, SVG Export Plug-In . SVG Version: 6.00 Build 0)  -->
<svg version="1.1" id="Black" xmlns="http://www.w3.org/2000/svg" xmlns:xlink="http://www.w3.org/1999/xlink" x="0px" y="0px"
	 viewBox="0 0 50 50" style="enable-background:new 0 0 50 50;" xml:space="preserve">
<path d="M10,6v6H8v2h2v4H8v2h2v4H8v2h2v4H8v2h2v4H8v2h2v6h30V6H10z M38,42H12v-4h2v-2h-2v-4h2v-2h-2v-4h2v-2h-2v-4h2v-2h-2v-4h2v-2
	h-2V8h26V42z M22,24.3V35c0,1.7,1.3,3,3,3s3-1.3,3-3V24.3c0.7-0.3,1.4-0.8,1.9-1.4c1.3-1.3,2.1-3.1,2.1-4.9c0-1.9-0.7-3.6-2-4.9
	c-0.3-0.3-0.7-0.6-1.2-0.9L28.5,12H28h-0.9H26v4.9l-1,0.6l-1-0.6V12h-1h-1h-0.5l-0.2,0.2c-0.5,0.3-0.8,0.6-1.2,0.9
	C18.7,14.4,18,16.2,18,18c0,1.9,0.7,3.6,2.1,4.9C20.6,23.5,21.3,24,22,24.3z M21.5,14.5c0.2-0.2,0.3-0.3,0.5-0.4v4l3,1.7l3-1.7v-4
	c0.2,0.1,0.4,0.3,0.5,0.4c0.9,0.9,1.5,2.2,1.5,3.5c0,1.3-0.5,2.6-1.5,3.5c-0.5,0.5-1.1,0.9-1.9,1.2L26,23v12c0,0.6-0.4,1-1,1
	s-1-0.4-1-1V23l-0.7-0.2c-0.7-0.3-1.4-0.6-1.9-1.2C20.5,20.6,20,19.4,20,18C20,16.7,20.5,15.4,21.5,14.5z"/>
</svg>
