<?xml version="1.0" encoding="utf-8"?>
<!-- Generator: Adobe Illustrator 23.0.1, SVG Export Plug-In . SVG Version: 6.00 Build 0)  -->
<svg version="1.1" id="Black" xmlns="http://www.w3.org/2000/svg" xmlns:xlink="http://www.w3.org/1999/xlink" x="0px" y="0px"
	 viewBox="0 0 50 50" style="enable-background:new 0 0 50 50;" xml:space="preserve">
<path d="M4,8v5v24v5h42v-5V13V8H4z M30,10h6v3h-6V10z M22,10h6v3h-6V10z M14,10h6v3h-6V10z M6,10h6v3H6V10z M12,40H6v-3h6V40z
	 M20,40h-6v-3h6V40z M28,40h-6v-3h6V40z M36,40h-6v-3h6V40z M44,40h-6v-3h6V40z M44,35H6V15h38V35z M44,13h-6v-3h6V13z M20,18.1
	v13.9L32,25L20,18.1z M22,21.5l6,3.5l-6,3.5V21.5z"/>
</svg>
