<?xml version="1.0" encoding="utf-8"?>
<!-- Generator: Adobe Illustrator 23.0.1, SVG Export Plug-In . SVG Version: 6.00 Build 0)  -->
<svg version="1.1" xmlns="http://www.w3.org/2000/svg" xmlns:xlink="http://www.w3.org/1999/xlink" x="0px" y="0px"
	 viewBox="0 0 50 50" style="enable-background:new 0 0 50 50;" xml:space="preserve">
<g id="Gold">
</g>
<g id="Black">
	<g>
		<path d="M38.9,36.3c-3.5-6.9-9.5-7.2-9.8-7.2l-0.6,0L25,35.4l-3.5-6.3l-0.6,0c-0.3,0-6.2,0.2-9.8,7.2L11,36.5V46h28v-9.5
			L38.9,36.3z M37,44H13V37c2.4-4.6,6-5.6,7.4-5.8l4.7,8.3l4.7-8.3c1.4,0.2,5,1.3,7.4,5.8V44z"/>
		<path d="M25,28c2.2,0,4.2-0.8,5.8-2h7.9v-10l0-0.1C35.8,5.4,26.9,4.7,25.1,4.7c-0.3,0-2.8-0.1-5.7,1.2c-2.8,1.2-6.4,3.9-8.1,9.9
			l0,0.1v10h7.9C20.8,27.2,22.8,28,25,28z M25,26c-4.2,0-7.5-3.5-7.5-7.7c0-0.7,0.1-1.4,0.3-2.1h3.5l3.7-3.8l3.6,3.6h3.7
			c0.2,0.7,0.3,1.5,0.3,2.3C32.5,22.5,29.2,26,25,26z M13.3,16.2c2.6-9.1,10.2-9.5,11.6-9.5c0,0,0,0,0,0l0.2,0v0c0,0,0,0,0,0
			c1.3,0,9,0.4,11.6,9.5V24h-4c1.1-1.6,1.8-3.6,1.8-5.7c0-1.2-0.2-2.3-0.6-3.4L33.5,14h-4.1l-4.4-4.4l-4.5,4.6h-4l-0.3,0.5L16,15.1
			c-0.4,1-0.5,2.1-0.5,3.2c0,2.1,0.7,4.1,1.8,5.7h-4V16.2z"/>
	</g>
</g>
</svg>
