<?xml version="1.0" encoding="utf-8"?>
<!-- Generator: Adobe Illustrator 23.0.1, SVG Export Plug-In . SVG Version: 6.00 Build 0)  -->
<svg version="1.1" xmlns="http://www.w3.org/2000/svg" xmlns:xlink="http://www.w3.org/1999/xlink" x="0px" y="0px"
	 viewBox="0 0 50 50" style="enable-background:new 0 0 50 50;" xml:space="preserve">
<style type="text/css">
	.st0{display:none;}
</style>
<g id="White">
</g>
<g id="Black">
	<g>
		<g>
			<path d="M47.9,4H28v5.9h-2.1V8h-2v1.9H6v16H2v20h11v-8l11,0v2h-3.8l-3.2,6h16l-1.5-2.7L29.7,40h-3.7v-2l17.9,0v-6l4.1,0L47.9,4z
				 M30,6h15.9L46,24H30V6z M11.1,44H4v-3.5h7.1V44z M11.1,38.6H4V27.9h7.1V38.6z M28.5,42l1.1,2h-9.3l1-2H28.5z M41.9,36.1L13,36
				V26H8v-14H28V32l13.9,0V36.1z M30,30v-4h16l0,4L30,30z"/>
			<rect x="37" y="27" width="2" height="2"/>
		</g>
		<rect x="6.6" y="41.3" width="2" height="2"/>
	</g>
	<g>
		<g>
			<rect x="8.7" y="17.4" transform="matrix(0.5204 -0.8539 0.8539 0.5204 -8.8369 21.0394)" width="11.1" height="2"/>
		</g>
		<g>
			<rect x="8.9" y="14.8" transform="matrix(0.5242 -0.8516 0.8516 0.5242 -8.1674 17.0253)" width="4.5" height="2"/>
		</g>
	</g>
</g>
<g id="Grid" class="st0">
</g>
</svg>
