<?xml version="1.0" encoding="utf-8"?>
<!-- Generator: Adobe Illustrator 23.0.1, SVG Export Plug-In . SVG Version: 6.00 Build 0)  -->
<svg version="1.1" id="Black" xmlns="http://www.w3.org/2000/svg" xmlns:xlink="http://www.w3.org/1999/xlink" x="0px" y="0px"
	 viewBox="0 0 50 50" style="enable-background:new 0 0 50 50;" xml:space="preserve">
<path d="M38,34h-2v-2h2V34z M44,18v26H6l8-30h6v8.6l8-4.6v4.6l8-4.6v4.6L44,18z M28,26h6v-4.5l-6,3.5V26z M20,26h6v-4.5l-6,3.5V26z
	 M18,16h-2.5l-7,26H18V16z M42,28H20v14h22V28z M42,21.5l-6,3.5V26h6V21.5z M38,36h-2v2h2V36z M26,32h-2v2h2V32z M34,32h-2v2h2V32z
	 M30,36h-2v2h2V36z M26,36h-2v2h2V36z M30,32h-2v2h2V32z M34,36h-2v2h2V36z M21.7,8H28V6h-9.8l2.3,4L14,10v2l10,0L21.7,8z"/>
</svg>
