<?xml version="1.0" encoding="utf-8"?>
<!-- Generator: Adobe Illustrator 23.0.1, SVG Export Plug-In . SVG Version: 6.00 Build 0)  -->
<svg version="1.1" id="Black" xmlns="http://www.w3.org/2000/svg" xmlns:xlink="http://www.w3.org/1999/xlink" x="0px" y="0px"
	 viewBox="0 0 50 50" style="enable-background:new 0 0 50 50;" xml:space="preserve">
<path d="M42,16H30v18h12V16z M40,32h-8V18h8V32z M29.3,10L25,11.1L21,10L2,10v30h18.6l4.5,1.2l4.4-1.2H48V10H29.3z M24,38.9L21,38
	L4,38V12h16.6l3.4,0.9V38.9z M46,38H29.3L26,38.9v-26l3.4-0.9H46V38z M8,28h12v2H8V28z M8,32h12v2H8V32z M8,16h12v2H8V16z M8,24h12
	v2H8V24z M8,20h12v2H8V20z"/>
</svg>
