<?xml version="1.0" encoding="utf-8"?>
<!-- Generator: Adobe Illustrator 23.0.1, SVG Export Plug-In . SVG Version: 6.00 Build 0)  -->
<svg version="1.1" xmlns="http://www.w3.org/2000/svg" xmlns:xlink="http://www.w3.org/1999/xlink" x="0px" y="0px"
	 viewBox="0 0 50 50" style="enable-background:new 0 0 50 50;" xml:space="preserve">
<g id="White">
</g>
<g id="Black">
	<polygon points="18,30 18,28.8 23.9,22.8 26.9,25.8 32.7,19.9 31.3,18.5 26.9,23 23.9,20 18,26 18,16 16,16 16.1,32 33.9,32 
		33.9,30 	"/>
	<g>
		<path d="M32.1,8V3.9h-3.8c-0.7-1.1-1.9-1.8-3.2-1.8s-2.5,0.7-3.2,1.8h-3.8V8H10v39.9H40V8H32.1z M19.9,5.9h3.2l0.2-0.6
			c0.3-0.7,0.9-1.2,1.7-1.2c0.8,0,1.4,0.5,1.7,1.2l0.2,0.6h3.2v2.5V12H19.9V8.4V5.9z M38,45.9H12V10h5.9V14v0.1h14.1V14V10H38V45.9z
			"/>
		<rect x="24" y="8" width="2" height="1.9"/>
	</g>
	<g>
		<rect x="16" y="36" width="17.9" height="2"/>
	</g>
	<g>
		<rect x="16" y="39.9" width="17.9" height="2"/>
	</g>
</g>
</svg>
