<?xml version="1.0" encoding="utf-8"?>
<!-- Generator: Adobe Illustrator 23.0.1, SVG Export Plug-In . SVG Version: 6.00 Build 0)  -->
<svg version="1.1" id="Black" xmlns="http://www.w3.org/2000/svg" xmlns:xlink="http://www.w3.org/1999/xlink" x="0px" y="0px"
	 viewBox="0 0 50 50" style="enable-background:new 0 0 50 50;" xml:space="preserve">
<path d="M44,23c0-1.7-1.3-3-3-3h-1.2l-5.4-9.3l0,0C33.6,9.1,31.9,8,30,8H14.5c-3.9,0-7,3.1-7,7c0,2.1,1,4.1,2.5,5.4v10.5
	c-1.4,1-2.7,2.2-3.8,3.6L6,34.7V44h26v-9.3l-0.2-0.3c-2-2.6-4.7-4.6-7.8-5.6l-2.2-8.5l9.1-2.4l1.3,2.2C30.9,20.5,30,21.7,30,23v5h2
	c-0.1,1.5,0.4,2.9,1.4,4l0.7-0.7l0,0l0,0l0.7-0.7c-0.7-0.7-1-1.7-0.8-2.6H40c0.1,0.9-0.1,1.9-0.8,2.6l0.7,0.7l0,0l0,0l0.7,0.7
	c1.1-1.1,1.6-2.5,1.4-4h2V23z M34.6,15l2.9,5h-3.1l-1.6-2.8C33.6,16.6,34.2,15.9,34.6,15z M8,42v-2h22v2H8z M30,35.4V38H8v-2.6
	C10.7,32,14.7,30,19,30C23.3,30,27.4,32,30,35.4z M21.8,28.3C20.9,28.1,19.9,28,19,28c-2.4,0-4.8,0.6-7,1.6v-8.1
	c0.8,0.3,1.6,0.5,2.5,0.5c0.6,0,1.2-0.1,1.8-0.2l3.5-0.9L21.8,28.3z M30.7,15.9l-14.9,3.9c-0.4,0.1-0.9,0.2-1.3,0.2
	c-2.8,0-5-2.2-5-5s2.2-5,5-5H30c1.7,0,3,1.3,3,3C33,14.4,32.1,15.6,30.7,15.9z M42,26H32v-3c0-0.6,0.4-1,1-1h8c0.6,0,1,0.4,1,1V26z
	 M13,14h2v2h-2V14z M29,12h2v2h-2V12z"/>
</svg>
