<?xml version="1.0" encoding="utf-8"?>
<!-- Generator: Adobe Illustrator 23.0.1, SVG Export Plug-In . SVG Version: 6.00 Build 0)  -->
<svg version="1.1" id="Black" xmlns="http://www.w3.org/2000/svg" xmlns:xlink="http://www.w3.org/1999/xlink" x="0px" y="0px"
	 viewBox="0 0 50 50" style="enable-background:new 0 0 50 50;" xml:space="preserve">
<path d="M33,14c-7.2,0-13,5.8-13,13s5.8,13,13,13s13-5.8,13-13S40.2,14,33,14z M33,38c-5,0-9.3-3.4-10.6-8H40v-2H22.1
	c0-0.3-0.1-0.7-0.1-1s0-0.7,0.1-1H28v-2h-5.6c0.2-0.7,0.5-1.4,0.8-2H36v-2H24.5c2-2.4,5.1-4,8.5-4c6.1,0,11,4.9,11,11
	c0,1.8-0.4,3.5-1.2,5H34v2h7.5C39.5,36.4,36.4,38,33,38z"/>
<path d="M9.3,28.3 M17.6,17.6L22,15l-4.4-2.6L15,8l-2.6,4.4L8,15l4.4,2.6L15,22L17.6,17.6z M13.9,13.9L15,12l1.1,1.9L18,15l-1.9,1.1
	L15,18l-1.1-1.9L12,15L13.9,13.9z M13.6,35.6L18,33l-4.4-2.6L11,26l-2.6,4.4L4,33l4.4,2.6L11,40L13.6,35.6z M9.9,31.9L11,30l1.1,1.9
	L14,33l-1.9,1.1L11,36l-1.1-1.9L8,33L9.9,31.9z M34,8v2h2V8H34z M8,20v2h2v-2H8z M42,12v2h2v-2H42z"/>
</svg>
