<?xml version="1.0" encoding="utf-8"?>
<!-- Generator: Adobe Illustrator 23.0.1, SVG Export Plug-In . SVG Version: 6.00 Build 0)  -->
<svg version="1.1" id="Black" xmlns="http://www.w3.org/2000/svg" xmlns:xlink="http://www.w3.org/1999/xlink" x="0px" y="0px"
	 viewBox="0 0 50 50" style="enable-background:new 0 0 50 50;" xml:space="preserve">
<path d="M14,17c0,2.8,2.2,5,5,5s5-2.2,5-5s-2.2-5-5-5S14,14.2,14,17z M22,17c0,1.7-1.3,3-3,3s-3-1.3-3-3s1.3-3,3-3S22,15.3,22,17z
	 M18,16h2v2h-2V16z M10,14H8V8h34v8h-2v-6H10V14z M40,26h2v16H8V24h2v16h30V26z M38,25c0-2.8-2.2-5-5-5s-5,2.2-5,5s2.2,5,5,5
	S38,27.8,38,25z M30,25c0-1.7,1.3-3,3-3s3,1.3,3,3s-1.3,3-3,3S30,26.7,30,25z M20,34h-2v-2h2V34z M34,26h-2v-2h2V26z M24,33
	c0-2.8-2.2-5-5-5s-5,2.2-5,5s2.2,5,5,5S24,35.8,24,33z M16,33c0-1.7,1.3-3,3-3s3,1.3,3,3s-1.3,3-3,3S16,34.7,16,33z M47.7,27.3
	l-1.5,1.3L36.6,18h-7.7l-4.6,8h-9.7L2.3,13.7l1.4-1.4L15.4,24h7.7l4.6-8h9.7L47.7,27.3z"/>
</svg>
