<?xml version="1.0" encoding="utf-8"?>
<!-- Generator: Adobe Illustrator 23.0.1, SVG Export Plug-In . SVG Version: 6.00 Build 0)  -->
<svg version="1.1" id="Black" xmlns="http://www.w3.org/2000/svg" xmlns:xlink="http://www.w3.org/1999/xlink" x="0px" y="0px"
	 viewBox="0 0 50 50" style="enable-background:new 0 0 50 50;" xml:space="preserve">
<path d="M17.5,32h-2.5c2.3,3.6,6.3,6,10.9,6c7.2,0,13-5.8,13-13s-5.8-13-13-13c-6.1,0-11.3,4.3-12.6,10H16v0h4.4c-0.1,1-0.2,2-0.2,3
	s0.1,2,0.2,3H17l1,2h2.6c0.4,2.1,1,4,1.8,5.4C20.5,34.7,18.8,33.5,17.5,32z M26,36c-1.1,0-2.6-2.2-3.3-6h6.7
	C28.6,33.8,27.1,36,26,36z M29.6,35.4c0.8-1.4,1.4-3.3,1.8-5.4h4.4C34.5,32.5,32.3,34.5,29.6,35.4z M37,25c0,1-0.2,2-0.4,3h-4.9
	c0.1-1,0.2-2,0.2-3s-0.1-2-0.2-3h4.9C36.8,23,37,24,37,25z M35.8,20h-4.4c-0.4-2.1-1-4-1.8-5.4C32.3,15.5,34.5,17.5,35.8,20z M26,14
	c1.1,0,2.6,2.2,3.3,6h-6.7C23.4,16.2,24.9,14,26,14z M16.2,20c1.3-2.5,3.5-4.5,6.2-5.4C21.6,16,21,17.9,20.6,20H16.2z M22.4,28
	c-0.1-0.9-0.2-1.9-0.2-3s0.1-2.1,0.2-3h7.3c0.1,0.9,0.2,1.9,0.2,3s-0.1,2.1-0.2,3H22.4z M26,6c-6.1,0-11.9,3-15.4,7.9l1.6,1.2
	C15.4,10.7,20.5,8,26,8c9.4,0,17,7.6,17,17s-7.6,17-17,17c-7.5,0-14.1-4.9-16.2-12h6.1L8.9,18L2,30h5.7c2.2,8.3,9.7,14,18.3,14
	c10.5,0,19-8.5,19-19S36.5,6,26,6z M5.4,28l3.5-6l3.5,6H5.4z"/>
</svg>
