<?xml version="1.0" encoding="utf-8"?>
<!-- Generator: Adobe Illustrator 23.0.1, SVG Export Plug-In . SVG Version: 6.00 Build 0)  -->
<svg version="1.1" id="Black" xmlns="http://www.w3.org/2000/svg" xmlns:xlink="http://www.w3.org/1999/xlink" x="0px" y="0px"
	 viewBox="0 0 50 50" style="enable-background:new 0 0 50 50;" xml:space="preserve">
<path d="M38,24h-2v-2h2V24z M4.3,34L4,33.7V22h4v-4H4v-2h18v-6h6V9c0-1.7,1.3-3,3-3s3,1.3,3,3v1h6v9.2l5.8,3.3L38,36H24l-7.8-13.5
	l5.8-3.3V18H10v4h4v11.8L13.7,34C12.5,35.3,10.8,36,9,36C7.2,36,5.5,35.3,4.3,34z M32,16.9V34h4.8L43,23.2L32,16.9z M30,10h2V8h-2
	V10z M24,18l7-4l7,4v-6H24V18z M19,23.2L25.2,34H30V16.9L19,23.2z M6,32.9c1.7,1.4,4.3,1.4,6,0V24H6V32.9z M26,24v-2h-2v2H26z
	 M43,38.2l-3,3l-3-3l-3,3l-3-3l-3,3l-3-3l-3,3l-3-3l-3,3l-3-3l-3,3l-3-3l-4.4,4.4L4,44l3-3l3,3l3-3l3,3l3-3l3,3l3-3l3,3l3-3l3,3l3-3
	l3,3l3-3l3,3l1.4-1.4L43,38.2z"/>
</svg>
