<?xml version="1.0" encoding="utf-8"?>
<!-- Generator: Adobe Illustrator 23.0.1, SVG Export Plug-In . SVG Version: 6.00 Build 0)  -->
<svg version="1.1" id="Black" xmlns="http://www.w3.org/2000/svg" xmlns:xlink="http://www.w3.org/1999/xlink" x="0px" y="0px"
	 viewBox="0 0 50 50" style="enable-background:new 0 0 50 50;" xml:space="preserve">
<path d="M22,42h-2v-2h2V42z M44,18v30H26v-2H6V4h30v14H44z M8,8h26V6H8V8z M26,38H8v6h18V38z M26,18h8v-8H8v26h18V18z M42,40H28v6
	h14V40z M42,24H28v14h14V24z M42,20H28v2h14V20z M36,42h-2v2h2V42z M14.2,13l-1.7-1L10,16.2l1.7,1L14.2,13z M10.8,23l1.7,1l6.3-11
	l-1.7-1L10.8,23z"/>
</svg>
