<?xml version="1.0" encoding="utf-8"?>
<!-- Generator: Adobe Illustrator 23.0.1, SVG Export Plug-In . SVG Version: 6.00 Build 0)  -->
<svg version="1.1" id="Black" xmlns="http://www.w3.org/2000/svg" xmlns:xlink="http://www.w3.org/1999/xlink" x="0px" y="0px"
	 viewBox="0 0 50 50" style="enable-background:new 0 0 50 50;" xml:space="preserve">
<path d="M34.9,29.5l5.8-5.8L40,22h-7.1l-1.4-5.4l4.9-4.9L35.7,10h-6l-1.6-6h-6.2l-1.6,6h-6l-0.7,1.7l4.9,4.9L17.1,22H10l-0.7,1.7
	l5.8,5.8L12.2,40H10v6h30v-6h-2.2L34.9,29.5z M37.6,24l-3.2,3.2L33.5,24H37.6z M32,26.1L35.7,40h-0.8l-8.4-8.4L32,26.1z M32,40H18.1
	l7-7L32,40z M18.9,24h12.4l-6.2,6.2L18.9,24z M33.3,12l-2.4,2.4L30.2,12H33.3z M23.4,6h3.1l1.1,4h-5.3L23.4,6z M20.7,16.1L20.7,16.1
	L20.7,16.1l1.1-4.1h1.5H28h0.2l2.7,10H19.1L20.7,16.1z M16.7,12h3l-0.6,2.4L16.7,12z M12.4,24h4.1l-0.9,3.2L12.4,24z M18.1,26
	l5.6,5.6L15.3,40h-1L18.1,26z M38,44H12v-2h26V44z M26,18h-2v-2h2V18z"/>
</svg>
