<?xml version="1.0" encoding="utf-8"?>
<!-- Generator: Adobe Illustrator 23.0.1, SVG Export Plug-In . SVG Version: 6.00 Build 0)  -->
<svg version="1.1" id="Black" xmlns="http://www.w3.org/2000/svg" xmlns:xlink="http://www.w3.org/1999/xlink" x="0px" y="0px"
	 viewBox="0 0 50 50" style="enable-background:new 0 0 50 50;" xml:space="preserve">
<path d="M23,17l5,2.9V6l-12,6.9l5.3,3L12,32l-4.3-7.4l-1.7,1L12,36L23,17z M20,12.9l6-3.5v6.9L20,12.9z M6,42h38v2H6V42z M32,12.9
	l5.3,3L28,32l-4.3-7.4l-1.7,1L28,36l11-19l5,2.9V6L32,12.9z M42,16.4l-6-3.5l6-3.5V16.4z M6,38h38v2H6V38z"/>
</svg>
