<?xml version="1.0" encoding="utf-8"?>
<!-- Generator: Adobe Illustrator 23.0.1, SVG Export Plug-In . SVG Version: 6.00 Build 0)  -->
<svg version="1.1" id="Black" xmlns="http://www.w3.org/2000/svg" xmlns:xlink="http://www.w3.org/1999/xlink" x="0px" y="0px"
	 viewBox="0 0 50 50" style="enable-background:new 0 0 50 50;" xml:space="preserve">
<path d="M35.9,19.7C36,19.5,36,19.3,36,19c0-1.3-0.8-2.4-2-2.8V6h-2v10.2c-1.2,0.4-2,1.5-2,2.8c0,0.3,0,0.5,0.1,0.7l-1.7,1l-8.5-5
	C20,15.5,20,15.3,20,15c0-1.3-0.8-2.4-2-2.8V2h-2v10.2c-1.2,0.4-2,1.5-2,2.8c0,0.3,0,0.5,0.1,0.7L5,21.1l1,1.7l9.3-5.5
	c0.2,0.2,0.5,0.3,0.8,0.4V34h-2.6L10,40H24l-3.5-6H18V17.8c0.3-0.1,0.5-0.2,0.8-0.4l7.7,4.5L21,25.1l1,1.7l9.3-5.5
	c0.2,0.2,0.5,0.3,0.8,0.4V34h-2.6L26,40H40l-3.5-6H34V21.8c0.3-0.1,0.5-0.2,0.8-0.4l9.3,5.5l1-1.7L35.9,19.7z M19.4,36l1.2,2h-7.1
	l1.2-2H19.4z M18,16h-2v-2h2V16z M35.4,36l1.2,2h-7.1l1.2-2H35.4z M34,20h-2v-2h2V20z M37,42l4.4,4.4L40,47.8l-3-3l-3,3l-3-3l-3,3
	l-3-3l-3,3l-3-3l-3,3l-3-3l-3,3l-1.4-1.4L13,42l3,3l3-3l3,3l3-3l3,3l3-3l3,3L37,42z M14,6H8V4h6V6z M12,10.1H4v-2h8V10.1z"/>
</svg>
