<?xml version="1.0" encoding="utf-8"?>
<!-- Generator: Adobe Illustrator 23.0.1, SVG Export Plug-In . SVG Version: 6.00 Build 0)  -->
<svg version="1.1" id="Black" xmlns="http://www.w3.org/2000/svg" xmlns:xlink="http://www.w3.org/1999/xlink" x="0px" y="0px"
	 viewBox="0 0 50 50" style="enable-background:new 0 0 50 50;" xml:space="preserve">
<path d="M39.7,30.8C38.1,29,33.6,26,27.2,26c-6.4,0-10,2.9-11,4h-0.3l-3.9-4H10v14h1.9l3.8-4l0.4,0c1.1,1,4.7,4,11.1,4
	c6.4,0,10.9-3,12.5-4.8l0.6-0.7L38.8,33l1.5-1.5L39.7,30.8z M17.3,34.3L17,34l-2.1,0L12,37v-8.1l3,3.1l2.1,0l0.3-0.3
	c0.1-0.1,3.2-3.6,9.9-3.6c0,0,0.1,0,0.1,0l-1.3,5l1.3,5c0,0,0,0-0.1,0C20.6,38,17.4,34.5,17.3,34.3z M37.5,34.5
	c-1.5,1.2-4.4,2.9-8.2,3.3L28,33l1.3-4.9c3.8,0.5,6.7,2.1,8.2,3.3L36,33L37.5,34.5z M29.9,30h2v2h-2V30z M4,15.8l-1.4-1.4L7,10l3,3
	l3-3l3,3l3-3l3,3l3-3l3,3l3-3l3,3l3-3l3,3l3-3l4.4,4.4L46,15.8l-3-3l-3,3l-3-3l-3,3l-3-3l-3,3l-3-3l-3,3l-3-3l-3,3l-3-3l-3,3l-3-3
	L4,15.8z M43,15.9l4.4,4.4L46,21.7l-3-3l-3,3l-3-3l-3,3l-3-3l-3,3l-3-3l-3,3l-3-3l-3,3l-3-3l-3,3l-3-3l-3,3l-1.4-1.4L7,15.9l3,3l3-3
	l3,3l3-3l3,3l3-3l3,3l3-3l3,3l3-3l3,3L43,15.9z"/>
</svg>
