<?xml version="1.0" encoding="utf-8"?>
<!-- Generator: Adobe Illustrator 23.0.1, SVG Export Plug-In . SVG Version: 6.00 Build 0)  -->
<svg version="1.1" id="Black" xmlns="http://www.w3.org/2000/svg" xmlns:xlink="http://www.w3.org/1999/xlink" x="0px" y="0px"
	 viewBox="0 0 50 50" style="enable-background:new 0 0 50 50;" xml:space="preserve">
<path d="M25,14c2.8,0,5-2.2,5-5s-2.2-5-5-5s-5,2.2-5,5S22.2,14,25,14z M25,6c1.7,0,3,1.3,3,3s-1.3,3-3,3s-3-1.3-3-3S23.3,6,25,6z
	 M42,24H32l0-5.8L31.9,18c-0.8-1.5-2.7-2.7-4.7-3l-0.7-0.1L25,17.5l-1.5-2.6L22.8,15c-2,0.3-3.9,1.5-4.7,3L18,18.2l0,5.8H8v6h2v16
	h30V30h2V24z M20,18.8c0.4-0.7,1.3-1.3,2.4-1.7l2.5,4.4l2.5-4.4c1.1,0.3,2,1,2.4,1.7l0,5.2H20L20,18.8z M38,44H12V30h26V44z M40,28
	H10v-2h30V28z"/>
<path d="M24,38H14v-2h10V38z M24,40H14v2h10V40z"/>
</svg>
