<?xml version="1.0" encoding="utf-8"?>
<!-- Generator: Adobe Illustrator 23.0.1, SVG Export Plug-In . SVG Version: 6.00 Build 0)  -->
<svg version="1.1" id="Black" xmlns="http://www.w3.org/2000/svg" xmlns:xlink="http://www.w3.org/1999/xlink" x="0px" y="0px"
	 viewBox="0 0 50 50" style="enable-background:new 0 0 50 50;" xml:space="preserve">
<path d="M32,24h-2v-2h2V24z M20,22h-2v2h2V22z M18,38L7.7,20.1l6.3-3.7V6h8V5c0-1.7,1.3-3,3-3s3,1.3,3,3v1h8v10.4l6.3,3.7L32,38H18z
	 M26,13v23h4.8l8.8-15.2L26,13z M24,6h2V4h-2V6z M16,15.3l9-5.2l9,5.2V8H16V15.3z M10.4,20.8L19.2,36H24V13L10.4,20.8z M34,43l-3-3
	l-3,3l-3-3l-3,3l-3-3l-3,3l-3-3l-4.4,4.4l1.4,1.4l3-3l3,3l3-3l3,3l3-3l3,3l3-3l3,3l3-3l3,3l1.4-1.4L37,40L34,43z"/>
</svg>
