<?xml version="1.0" encoding="utf-8"?>
<!-- Generator: Adobe Illustrator 23.0.1, SVG Export Plug-In . SVG Version: 6.00 Build 0)  -->
<svg version="1.1" id="Black" xmlns="http://www.w3.org/2000/svg" xmlns:xlink="http://www.w3.org/1999/xlink" x="0px" y="0px"
	 viewBox="0 0 50 50" style="enable-background:new 0 0 50 50;" xml:space="preserve">
<path d="M44,17.8l2.6,2.6l1.4-1.4l-4-4l0-3.9c0-1.7-1.3-3-3-3s-3,1.3-3,3l0,3.9c-2.9,4.5-7.7,7.1-13,7.1c-5.3,0-10.1-2.6-13-7.1
	l0-3.9c0-1.7-1.3-3-3-3s-3,1.3-3,3l0,3.9l-4,4l1.4,1.4L6,17.8L6,30H2v2h4l0,2H2v2h4l0,4h6l0-4h26l0,4h6l0-4h4v-2h-4l0-2h4v-2h-4
	L44,17.8z M10,38H8V10h2V38z M38,18.2L38,30h-2v-9.9C36.7,19.5,37.4,18.9,38,18.2z M30,30v-6.7c1.4-0.4,2.8-1,4-1.8V30H30z M28,23.7
	V30h-6v-6.3c1,0.2,2,0.3,3,0.3C26,24,27,23.9,28,23.7z M16,30v-8.5c1.2,0.8,2.6,1.3,4,1.8V30H16z M12,18.2c0.6,0.7,1.3,1.3,2,1.9V30
	h-2L12,18.2z M12,34l0-2h26l0,2H12z M42,38h-2V10h2V38z"/>
</svg>
