<?xml version="1.0" encoding="utf-8"?>
<!-- Generator: Adobe Illustrator 23.0.1, SVG Export Plug-In . SVG Version: 6.00 Build 0)  -->
<svg version="1.1" id="Black" xmlns="http://www.w3.org/2000/svg" xmlns:xlink="http://www.w3.org/1999/xlink" x="0px" y="0px"
	 viewBox="0 0 50 50" style="enable-background:new 0 0 50 50;" xml:space="preserve">
<path d="M44,14H34v16h-2V10H2v26h4.1c0.5,2.3,2.5,4,4.9,4s4.4-1.7,4.9-4h2.2c0.5,2.3,2.5,4,4.9,4s4.4-1.7,4.9-4h6.2
	c0.5,2.3,2.5,4,4.9,4s4.4-1.7,4.9-4H48V18L44,14z M30,12v14H4V12H30z M6.1,34H4v-2h3C6.6,32.6,6.3,33.3,6.1,34z M11,38
	c-1.7,0-3-1.3-3-3s1.3-3,3-3s3,1.3,3,3S12.7,38,11,38z M18.1,34h-2.2c-0.2-0.7-0.5-1.4-0.9-2h4C18.6,32.6,18.2,33.3,18.1,34z M23,38
	c-1.7,0-3-1.3-3-3s1.3-3,3-3s3,1.3,3,3S24.6,38,23,38z M4,30v-2h26v2H4z M34.1,34h-6.2c-0.2-0.7-0.5-1.4-0.9-2H35
	C34.6,32.6,34.3,33.3,34.1,34z M39,38c-1.7,0-3-1.3-3-3s1.3-3,3-3s3,1.3,3,3S40.7,38,39,38z M46,34h-2.1c-0.2-0.7-0.5-1.4-0.9-2h3
	V34z M46,26h-4v-4h4V26z M46,20h-6v8h6v2H36V16h7.2l2.8,2.8V20z"/>
</svg>
