<?xml version="1.0" encoding="utf-8"?>
<!-- Generator: Adobe Illustrator 23.0.1, SVG Export Plug-In . SVG Version: 6.00 Build 0)  -->
<svg version="1.1" id="Black" xmlns="http://www.w3.org/2000/svg" xmlns:xlink="http://www.w3.org/1999/xlink" x="0px" y="0px"
	 viewBox="0 0 50 50" style="enable-background:new 0 0 50 50;" xml:space="preserve">
<path d="M12,36h-2V24h2V36z M18,28v8h2v-8H18z M28,20h-2v16h2V20z M44,6v38H34V14h-5c-2.8,0-5,2.2-5,5v17h-2V19c0-2,0.8-3.7,2.1-5
	H21c-2.8,0-5,2.2-5,5v17h-2V19c0-2,0.8-3.7,2.1-5H13c-2.8,0-5,2.2-5,5v17H6V19c0-2.8,1.6-5.2,4-6.3V6L44,6z M26,8L12,8v4.1
	c0.3,0,0.7-0.1,1-0.1h5V8h2v4h6V8z M34,8l-6,0v4h6V8z M42,8l-6,0v34h6V8z M24,41.1l-3-3l-3,3l-3-3l-3,3l-3-3l-4.4,4.4L6,43.9l3-3
	l3,3l3-3l3,3l3-3l3,3l3-3l3,3l1.4-1.4L27,38.1L24,41.1z"/>
</svg>
