<?xml version="1.0" encoding="utf-8"?>
<!-- Generator: Adobe Illustrator 23.0.1, SVG Export Plug-In . SVG Version: 6.00 Build 0)  -->
<svg version="1.1" xmlns="http://www.w3.org/2000/svg" xmlns:xlink="http://www.w3.org/1999/xlink" x="0px" y="0px"
	 viewBox="0 0 50 50" style="enable-background:new 0 0 50 50;" xml:space="preserve">
<style type="text/css">
	.st0{display:none;}
</style>
<g id="White">
</g>
<g id="Black">
	<path d="M42.2,30.5c0-1.1-0.4-2-1.1-2.8c0,0,0,0-0.1-0.1c0.2-0.2,0.4-0.4,0.6-0.7c0.6-0.8,0.6-1.7,0.6-2c0-0.4,0-1.2-0.4-1.9
		c-0.2-0.4-0.5-0.7-0.8-1c0.1-0.1,0.3-0.3,0.4-0.4c0.6-0.7,0.9-1.6,0.7-2.5c-0.2-2-2.2-3.5-4.3-3.3l-9.7,2.8
		c0.3-2.2,0.7-6.1,0.8-6.8c0.1-1.6-0.4-2.9-1.4-3.9c-2.1-2.1-5.9-2-6.1-2l-0.8,0l-2.2,15.3l-1.7,0.5l0.5,1.9l3-0.9L22.3,8
		c1,0.1,2.7,0.3,3.8,1.4c0.6,0.6,0.9,1.4,0.8,2.4c0,0.8-0.7,6.2-0.9,8.2l-0.2,1.5l12.1-3.5l0.2,0c1.1-0.1,2,0.6,2.1,1.5
		c0.1,0.5-0.1,0.8-0.3,1.1c-0.3,0.4-0.8,0.7-1.4,0.8c-0.2,0-0.4,0-0.5,0l0,1.9c0,0,0.6,0,0.6,0c0.7,0,1.2,0.4,1.5,0.8
		c0.2,0.3,0.2,0.7,0.2,0.8c0,0.1,0,0.6-0.3,1c-0.4,0.7-1.4,0.8-1.7,0.8c-0.1,0-0.2,0-0.2,0l0,2c0,0,0.1,0,0.3,0
		c0.5,0,1.1,0.2,1.4,0.5c0.3,0.3,0.5,0.8,0.5,1.3c0,1.3-0.7,1.7-1.3,1.8L38,32.4l0,1.9l0.9,0.1c0.1,0,0.4,0.1,0.8,0.5
		c0.4,0.4,0.5,0.9,0.4,1.3c0,0.2-0.1,0.7-0.5,1.1C39.1,38,38.2,38,38,38l-17.5,0l0.5,2l17,0c0.5,0,2,0,3.1-1.3
		c0.7-0.8,0.8-1.8,0.9-2.1c0.1-0.7,0.1-2-1-3c0,0-0.1-0.1-0.1-0.1C41.6,32.8,42.2,31.9,42.2,30.5z"/>
	<g>
		<polygon points="17.2,23.7 16.7,21.8 16.5,20.6 7.5,22.9 7.9,24.9 15,23 19.2,40.7 12.5,42.5 13,44.4 21.6,42.1 21.1,40 20.6,38 
					"/>
		<rect x="12" y="36" transform="matrix(7.236068e-03 -1 1 7.236068e-03 -24.1235 49.6837)" width="2" height="2"/>
	</g>
</g>
<g id="Grid" class="st0">
</g>
</svg>
