<?xml version="1.0" encoding="utf-8"?>
<!-- Generator: Adobe Illustrator 23.0.1, SVG Export Plug-In . SVG Version: 6.00 Build 0)  -->
<svg version="1.1" xmlns="http://www.w3.org/2000/svg" xmlns:xlink="http://www.w3.org/1999/xlink" x="0px" y="0px"
	 viewBox="0 0 50 50" style="enable-background:new 0 0 50 50;" xml:space="preserve">
<g id="White">
</g>
<g id="Black">
	<path d="M14.9,16.4c0.2,0.1,0.3,0.3,0.5,0.5c0.5,0.4,1.1,0.9,1.9,1.4c1.8,1.1,4.3,2.1,7.4,2.1c0.1,0,0.3,0,0.4,0c3,0,5.4-0.9,7.1-2
		c0.8-0.5,1.4-0.9,1.9-1.4c0.2-0.2,0.4-0.4,0.6-0.5c0.5-0.5,0.8-0.9,0.8-0.9l0.7-0.9h0c0,0,0,0,0,0c0-5.6-5.5-10.8-11.5-10.8
		c-6.1,0-11.5,5-11.5,10.7l0,0l0,0l0.8,0.9C14.1,15.6,14.4,16,14.9,16.4z M26,6c4.1,0.5,7.6,3.8,8.2,7.6c-1.3-0.4-3.9-1-8.2-1.1V6z
		 M25.2,14.5c4,0,6.5,0.5,7.8,0.8c-1.4,1.2-4.1,3-8,2.9c-3.9,0.1-6.7-1.8-8.2-3c1.4-0.4,3.9-0.8,7.9-0.8H25.2z M23.9,6v6.5
		c-4.5,0.1-7.1,0.7-8.5,1.1C16,9.8,19.7,6.4,23.9,6z"/>
	<g>
		<g>
			<g>
				<path d="M39,45.9H11v-9.5l0.1-0.2c3.5-6.9,9.5-7.2,9.8-7.2l0.6,0l3.5,6.3l3.5-6.3l0.6,0c0.3,0,6.2,0.2,9.8,7.2l0.1,0.2V45.9z
					 M13,43.9h24v-7c-2.4-4.5-6-5.6-7.3-5.8L25,39.4l-4.7-8.3c-1.4,0.2-4.9,1.2-7.3,5.8V43.9z"/>
			</g>
		</g>
		<path d="M36.7,15.7c-0.1-0.4-0.2-0.7-0.3-1.1c0,0,0,0,0,0h0l-0.7,0.9c0,0.1-0.3,0.4-0.8,0.9l1.5,7.2h-3.6c1-1.5,1.6-3.4,1.6-5.4
			c0-0.4,0-0.9-0.1-1.3c-0.5,0.4-1.1,0.9-1.9,1.4c0,4.2-3.4,7.6-7.5,7.6c-4.1,0-7.5-3.4-7.5-7.7c0,0,0-0.1,0-0.1
			c-0.8-0.5-1.4-0.9-1.9-1.4c-0.1,0.5-0.1,1-0.1,1.4c0,2,0.6,3.8,1.6,5.4h-3.3l1.3-7.3c-0.5-0.5-0.8-0.8-0.8-0.9l-0.8-0.9
			c-0.1,0.2-0.1,0.4-0.2,0.6c0,0.2-0.1,0.3-0.1,0.5l-1.8,10h7.5c1.7,1.4,3.8,2.3,6.1,2.3c2.3,0,4.5-0.9,6.1-2.3h7.9L36.7,15.7z"/>
	</g>
</g>
</svg>
