<?xml version="1.0" encoding="utf-8"?>
<!-- Generator: Adobe Illustrator 23.0.1, SVG Export Plug-In . SVG Version: 6.00 Build 0)  -->
<svg version="1.1" id="Black" xmlns="http://www.w3.org/2000/svg" xmlns:xlink="http://www.w3.org/1999/xlink" x="0px" y="0px"
	 viewBox="0 0 50 50" style="enable-background:new 0 0 50 50;" xml:space="preserve">
<path d="M48,28v-2h-6l0-12.2l-0.3-0.3c-1-1-2.3-1.5-3.7-1.5c-1.4,0-2.7,0.5-3.7,1.5L34,13.8l0,3.3c-1.9,3-5.1,4.8-8.6,4.8L22,20v-8
	h-4v-1c0-1.7-1.3-3-3-3s-3,1.3-3,3v1H8v8L2.9,23L9.3,34h11.4l5.8-10.1c2.9-0.3,5.5-1.6,7.5-3.6l0,5.7h-6v8h20v-2H30v-4H48z M36,14.7
	c1.1-0.9,2.9-0.9,4,0l0,1.3h-4L36,14.7z M36,18h4l0,8h-4L36,18z M14,10h2v2h-2V10z M14,32h-3.5l-4.8-8.3l8.3-4.8V32z M10,18.9V14h10
	v4.9L15,16L10,18.9z M19.5,32H16V18.9l8.3,4.8L19.5,32z M43,36.2l4.4,4.4L46,42l-3-3l-3,3l-3-3l-3,3l-3-3l-3,3l-3-3l-3,3l-3-3l-3,3
	l-3-3l-3,3l-3-3l-3,3l-1.4-1.4L7,36.2l3,3l3-3l3,3l3-3l3,3l3-3l3,3l3-3l3,3l3-3l3,3L43,36.2z"/>
</svg>
