<?xml version="1.0" encoding="utf-8"?>
<!-- Generator: Adobe Illustrator 23.0.1, SVG Export Plug-In . SVG Version: 6.00 Build 0)  -->
<svg version="1.1" xmlns="http://www.w3.org/2000/svg" xmlns:xlink="http://www.w3.org/1999/xlink" x="0px" y="0px"
	 viewBox="0 0 50 50" style="enable-background:new 0 0 50 50;" xml:space="preserve">
<g id="White">
</g>
<g id="Black">
	<g>
		<path d="M28.7,34.9l-3-2.8l0,0l-1.5,0L21.4,35l1.7,2l-1.7,7l0,0l0.9,0l1.1,0l1.5-6.2l1.4,6.2l1.2,0l0.9,0v0l-1.6-7.1L28.7,34.9z
			 M25,36.2L23.8,35l1.2-1.2l1.2,1.2L25,36.2z"/>
	</g>
	<g>
		<g>
			<path d="M14.8,18.8c0.4,5.3,4.8,9.4,10.2,9.4c5.6,0,10.2-4.6,10.2-10.2h0c0,0,0-0.1,0-0.1c0.1-0.3,1.9-7.6-3.5-11.4
				C27.1,3.3,23,5,20.2,6.5c0,0-0.1,0-0.1,0.1c-0.3,0.2-0.6,0.6-0.9,1c-0.8,0-2.7,0.3-4.2,2.1c-2,2.4-2.2,5.9-0.4,8.7L14.8,18.8z
				 M33.2,18c0,4.5-3.7,8.3-8.3,8.3c-4.2,0-7.6-3.1-8.2-7.1c0-0.1,0-0.2,0-0.3c-0.1-2,0.3-3.4,1.1-4.4c0.6-0.6,1.2-0.9,1.7-1
				c1.5,2.1,4.1,2.4,6.5,2.7l0.4,0.1c0.8,0.1,1.6,0.2,2.3,0.2C31.1,16.7,32.4,16.9,33.2,18L33.2,18z M21.3,8.2c3.6-2,6.4-2,9.3,0
				c2.8,2,3.1,5.4,3,7.5c-1.3-0.8-2.8-0.9-4.6-1.1c-0.7-0.1-1.4-0.1-2.2-0.2l-0.4-0.1c-2.6-0.3-4.4-0.7-5.3-2.2
				c0-0.1-0.1-0.2-0.2-0.3c-0.1-0.1-0.1-0.2-0.2-0.3C19.9,9.5,21,8.4,21.3,8.2z M16.5,11c0.7-0.8,1.4-1.1,2-1.3
				c-0.1,0.6,0,1.3,0.2,2c-0.7,0.2-1.5,0.6-2.2,1.4c-0.5,0.5-0.9,1.2-1.2,1.9C15.1,13.6,15.5,12.1,16.5,11z"/>
		</g>
		<g>
			<path d="M38.9,36.3c-3.5-6.9-9.5-7.1-9.7-7.1l-0.4,0l-3,2.9l1.5,1.4l2.3-2.3c0.3,0.1,1.1,0.2,1.9,0.6l-4.2,4.7l1.4,1.5l4.6-5.4
				c1.3,0.9,2.6,2.2,3.7,4.3v7h-8.7l0,0l-0.9,0h-5.2l-0.9,0l0,0H13l0-6.9c1.1-2.2,2.5-3.5,3.8-4.4l4.5,5.4l1.4-1.6L21.4,35l0,0
				l-2.8-3.3c0.8-0.3,1.4-0.4,1.8-0.5l2.3,2.3l1.4-1.4l-2.9-2.9l-0.4,0c-0.3,0-6.2,0.2-9.8,7.1L11,36.6l0,9.4h28l0-9.5L38.9,36.3z"
				/>
		</g>
	</g>
</g>
</svg>
