<?xml version="1.0" encoding="utf-8"?>
<!-- Generator: Adobe Illustrator 23.0.1, SVG Export Plug-In . SVG Version: 6.00 Build 0)  -->
<svg version="1.1" xmlns="http://www.w3.org/2000/svg" xmlns:xlink="http://www.w3.org/1999/xlink" x="0px" y="0px"
	 viewBox="0 0 50 50" style="enable-background:new 0 0 50 50;" xml:space="preserve">
<g id="White">
</g>
<g id="Black">
	<g>
		<path d="M17,24.6c5.1,0,9.3-4.2,9.3-9.3S22.1,6,17,6s-9.3,4.2-9.3,9.3S11.9,24.6,17,24.6z M17,8c4.1,0,7.3,3.3,7.3,7.3
			s-3.3,7.3-7.3,7.3s-7.3-3.3-7.3-7.3S13,8,17,8z"/>
		<path d="M28,39.9l0,2.1L6,42v-9.8c0.7-0.8,3.1-3.5,6.4-4.1l4.6,7.5l4.6-7.5c0.8,0.2,2.1,0.5,3.5,1.2l1-1.7
			c-2.3-1.3-4.7-1.6-4.8-1.6L20.6,26L17,31.9L13.4,26L12.7,26c-5.1,0.6-8.4,5.1-8.5,5.3L4,31.6V44l26-0.1l-0.1-4H28z"/>
	</g>
	<g>
		<path d="M18.9,39.9H28h2h18L33.5,15l-7.4,12.7l-1,1.7L18.9,39.9z M44.6,37.9H22.4l11.1-19L44.6,37.9z"/>
		<rect x="32.5" y="25.1" width="2" height="7.9"/>
		<rect x="32.5" y="34" width="2" height="2"/>
	</g>
</g>
</svg>
