<?xml version="1.0" encoding="utf-8"?>
<!-- Generator: Adobe Illustrator 23.0.1, SVG Export Plug-In . SVG Version: 6.00 Build 0)  -->
<svg version="1.1" xmlns="http://www.w3.org/2000/svg" xmlns:xlink="http://www.w3.org/1999/xlink" x="0px" y="0px"
	 viewBox="0 0 50 50" style="enable-background:new 0 0 50 50;" xml:space="preserve">
<style type="text/css">
	.st0{display:none;}
</style>
<g id="White">
</g>
<g id="Black">
	<path d="M43.9,36V8h-18V6h-2V8H6v28h18v2h-3.8L17,43.9h15.9L29.6,38h-3.7v-2H43.9z M29.5,41.9h-9.1l1-2h7L29.5,41.9z M7.9,10H42v24
		H7.9V10z"/>
	<g>
		<path d="M32.4,18.5h-2.1v-1.3c0-2.9-2.4-5.3-5.3-5.3c-2.9,0-5.3,2.4-5.3,5.3v1.3h-2.1L16,20.2v10l1.6,1.7h14.8l1.6-1.7v-10
			L32.4,18.5z M21.7,17.2c0-1.8,1.5-3.3,3.3-3.3c1.8,0,3.3,1.5,3.3,3.3v1.3h-6.7V17.2z M32,29.4l-0.5,0.5h-13L18,29.4v-8.4l0.4-0.5
			h13.1l0.4,0.5V29.4z"/>
		<g>
			<path d="M24.6,22c-0.6,0.1-1.1,0.6-1.3,1.3c-0.2,0.8,0.1,1.5,0.7,1.9V28h2v-2.8c0.3-0.2,0.6-0.6,0.7-1C27,22.8,25.9,21.7,24.6,22
				z"/>
		</g>
	</g>
</g>
<g id="Grid" class="st0">
</g>
</svg>
