<?xml version="1.0" encoding="utf-8"?>
<!-- Generator: Adobe Illustrator 23.0.1, SVG Export Plug-In . SVG Version: 6.00 Build 0)  -->
<svg version="1.1" id="Black" xmlns="http://www.w3.org/2000/svg" xmlns:xlink="http://www.w3.org/1999/xlink" x="0px" y="0px"
	 viewBox="0 0 50 50" style="enable-background:new 0 0 50 50;" xml:space="preserve">
<path d="M37.8,13.4c-2.3-3.1-6-5-9.8-5.3V6h2V4h-6v2h2v2.1c-3.8,0.3-7.5,2.2-9.8,5.3L16,13.7V22h-2c-2.2,0-4,1.8-4,4v20h2V26
	c0-1.1,0.9-2,2-2h2v22h4l3.5-6h7.1l3.5,6h4V13.7L37.8,13.4z M27,10c3.3,0,6.5,1.5,8.7,4H18.3C20.5,11.5,23.7,10,27,10z M18,20h4v18
	h-4V20z M30,20v18h-6V20H30z M18.8,44H18v-4h3.2L18.8,44z M36,44h-0.8l-2.3-4H36V44z M36,38h-4V20h4V38z M36,18H18v-2h18V18z"/>
</svg>
