<?xml version="1.0" encoding="utf-8"?>
<!-- Generator: Adobe Illustrator 23.0.1, SVG Export Plug-In . SVG Version: 6.00 Build 0)  -->
<svg version="1.1" id="Black" xmlns="http://www.w3.org/2000/svg" xmlns:xlink="http://www.w3.org/1999/xlink" x="0px" y="0px"
	 viewBox="0 0 50 50" style="enable-background:new 0 0 50 50;" xml:space="preserve">
<path d="M4.7,22C4.2,20.7,4,19.4,4,18C4,11.4,9.4,6,16,6c3.5,0,6.7,1.5,9,4.1C27.3,7.5,30.5,6,34,6c6.6,0,12,5.4,12,12
	c0,1.4-0.2,2.7-0.7,4h-2.2c0.6-1.3,0.8-2.6,0.8-4c0-5.5-4.5-10-10-10c-3.2,0-6.3,1.6-8.2,4.3L25,13.4l-0.8-1.2C22.3,9.6,19.2,8,16,8
	C10.5,8,6,12.5,6,18c0,1.4,0.3,2.7,0.8,4H4.7z M25,41.2L11.8,28H9c0.1,0.1,0.2,0.1,0.2,0.2L25,44l15.9-15.9c0,0,0.1-0.1,0.2-0.2
	h-2.8L25,41.2z M31.8,18.7l-5,8.6l-6.9-12l-5,8.6H4v2h12.1l3.8-6.6l6.9,12l5-8.6l1.9,3.3H46v-2H34.8L31.8,18.7z"/>
</svg>
