<?xml version="1.0" encoding="utf-8"?>
<!-- Generator: Adobe Illustrator 23.0.1, SVG Export Plug-In . SVG Version: 6.00 Build 0)  -->
<svg version="1.1" id="Black" xmlns="http://www.w3.org/2000/svg" xmlns:xlink="http://www.w3.org/1999/xlink" x="0px" y="0px"
	 viewBox="0 0 50 50" style="enable-background:new 0 0 50 50;" xml:space="preserve">
<path d="M16,30v10h2V30h9.9l-5.8-10H25L16.9,6L8.9,20h2.9L6,30H16z M16.9,10l4.6,8h-9.2L16.9,10z M14.1,20h5.8l4.6,8h-15L14.1,20z
	 M26,36h8v4h2v-4h8l-4.6-8h2.5L35,16l-6.9,12h2.5L26,36z M40.5,34H29.5l3.5-6h4.1L40.5,34z M35,20l3.5,6h-6.9L35,20z M44,42v2H6v-2
	H44z"/>
</svg>
