<?xml version="1.0" encoding="utf-8"?>
<!-- Generator: Adobe Illustrator 23.0.1, SVG Export Plug-In . SVG Version: 6.00 Build 0)  -->
<svg version="1.1" id="Black" xmlns="http://www.w3.org/2000/svg" xmlns:xlink="http://www.w3.org/1999/xlink" x="0px" y="0px"
	 viewBox="0 0 50 50" style="enable-background:new 0 0 50 50;" xml:space="preserve">
<path d="M21,18v2h-5v8h-2v-8H9v-2H21z M49.7,14L36,36l-3.5-5.6L29,36l-3.5-5.6L22,36l-3.5-5.6L15,36L1.3,14H49.7z M25.1,16H4.9
	L15,32.2L25.1,16z M32.1,16h-4.6l-7.8,12.5l2.3,3.7L32.1,16z M39.1,16h-4.6l-7.8,12.5l2.3,3.7L39.1,16z M46.1,16h-4.6l-7.8,12.5
	l2.3,3.7L46.1,16z"/>
</svg>
