<?xml version="1.0" encoding="utf-8"?>
<!-- Generator: Adobe Illustrator 23.0.1, SVG Export Plug-In . SVG Version: 6.00 Build 0)  -->
<svg version="1.1" id="Black" xmlns="http://www.w3.org/2000/svg" xmlns:xlink="http://www.w3.org/1999/xlink" x="0px" y="0px"
	 viewBox="0 0 50 50" style="enable-background:new 0 0 50 50;" xml:space="preserve">
<path d="M10,6.1v38L40,44V6L10,6.1z M14,42.1l-2,0v-34l2,0V42.1z M38,42l-22,0.1v-34L38,8V42z M23.8,37.1l1.8-3.1h6.9l1.8,3.1l1.7-1
	L29,24l-7,12.1L23.8,37.1z M29,28l2.3,4h-4.6L29,28z M18,28v-2c4.4,0,8-3.6,8-8h-8v-2h4v-4h2v4h4v2h0C28,23.5,23.5,28,18,28z"/>
</svg>
