<?xml version="1.0" encoding="utf-8"?>
<!-- Generator: Adobe Illustrator 23.0.1, SVG Export Plug-In . SVG Version: 6.00 Build 0)  -->
<svg version="1.1" id="Black" xmlns="http://www.w3.org/2000/svg" xmlns:xlink="http://www.w3.org/1999/xlink" x="0px" y="0px"
	 viewBox="0 0 50 50" style="enable-background:new 0 0 50 50;" xml:space="preserve">
<path d="M36,22h-2v-2h2V22z M32,16h-2v2h2V16z M36,16h-2v2h2V16z M36,24h-2v2h2V24z M28,20h-2v2h2V20z M28,24h-2v2h2V24z M42,10v24
	h-4v12H12V34H8V10h4V5.3L12.3,5c1.3-1.3,2.9-2,4.7-2s3.5,0.7,4.7,2L22,5.3V10H42z M14,26.9c1.7,1.5,4.3,1.5,6,0V6.1
	c-1.7-1.5-4.3-1.5-6,0V26.9z M36,34H14v10h22V34z M40,12H22v15.7L21.7,28c-1.3,1.3-2.9,2-4.7,2s-3.5-0.7-4.7-2L12,27.7V12h-2v20h30
	V12z M32,20h-2v2h2V20z M32,24h-2v2h2V24z M28,16h-2v2h2V16z M34,36H16v2h18V36z M34,40H16v2h18V40z"/>
</svg>
