<?xml version="1.0" encoding="utf-8"?>
<!-- Generator: Adobe Illustrator 23.0.1, SVG Export Plug-In . SVG Version: 6.00 Build 0)  -->
<svg version="1.1" id="Black" xmlns="http://www.w3.org/2000/svg" xmlns:xlink="http://www.w3.org/1999/xlink" x="0px" y="0px"
	 viewBox="0 0 50 50" style="enable-background:new 0 0 50 50;" xml:space="preserve">
<path d="M50,30.3L44.5,10L37,12l4.7,17.6l-0.3-1.2L36,33.8L23.5,41l0,0l-1.4,0.8c-0.3,0.2-0.7,0.2-1,0.1c-0.4-0.1-0.7-0.3-0.8-0.6
	c-0.4-0.7-0.2-1.5,0.5-1.9l4.1-2.4l0,0l2.8-1.6l-1-1.7l-8.9,5.1c-0.3,0.2-0.7,0.2-1,0.1c-0.4-0.1-0.7-0.3-0.8-0.6
	c-0.2-0.3-0.2-0.7-0.1-1c0.1-0.4,0.3-0.6,0.6-0.8l2.2-1.3l0,0l5.6-3.2l-1-1.7l-7.8,4.5c0,0,0,0,0,0l-1.9,1.1c-0.3,0.2-0.7,0.2-1,0.1
	c-0.4-0.1-0.7-0.3-0.8-0.6c-0.2-0.3-0.2-0.7-0.1-1c0.1-0.4,0.3-0.7,0.6-0.8l1.2-0.7c0,0,0,0,0.1,0l1.2-0.7l1.7-1l0,0l4.5-2.6l-1-1.7
	l-6.1,3.6L12.4,31c-0.3,0.2-0.7,0.2-1,0.1c-0.4-0.1-0.7-0.3-0.8-0.6c-0.2-0.3-0.2-0.7-0.1-1c0.1-0.4,0.3-0.7,0.6-0.8l10-5.9
	c1.6-0.9,2.8-2.2,3.6-3.7l8.3,2.1c0.3,0.1,0.6,0.1,0.9,0.1c1.5,0,2.8-1,3.2-2.4l0.9-3.3L20,10.7l-7.9,4.6L13,12l-7.5-2L0,30.3l7.5,2
	l0.9-3.4c-0.2,0.9-0.1,1.8,0.3,2.5c0.3,0.5,0.7,0.9,1.3,1.2c-0.2,0.3-0.4,0.7-0.5,1c-0.2,0.9-0.1,1.8,0.3,2.6
	c0.5,0.8,1.2,1.3,2.1,1.6c0.3,0.1,0.6,0.1,0.9,0.1c0.3,0,0.6-0.1,1-0.1c0,0.5,0.2,1,0.4,1.5c0.5,0.8,1.2,1.3,2.1,1.6
	c0.3,0.1,0.6,0.1,0.9,0.1c0.3,0,0.6-0.1,0.9-0.1c0,0.5,0.2,1,0.4,1.5c0.5,0.8,1.2,1.3,2.1,1.6c0.3,0.1,0.6,0.1,0.9,0.1
	c0.6,0,1.2-0.2,1.7-0.5l4.1-2.4l0,0l9.9-5.7l4.9-4.8l0.5,1.7L50,30.3z M6.1,29.9l-3.6-1l4.4-16.5l3.6,1L6.1,29.9z M10,26.8
	c-0.8,0.4-1.3,1.2-1.6,2L11.3,18l9-5.2l15.2,4l-0.4,1.3c-0.2,0.7-1,1.1-1.7,0.9L25,17l-1.6-0.4c-0.5,1.9-1.6,3.3-3.4,4.4l-7.4,4.4
	L10,26.8z M43.1,12.5l4.4,16.5l-3.6,1l-4.4-16.5L43.1,12.5z"/>
</svg>
