<?xml version="1.0" encoding="utf-8"?>
<!-- Generator: Adobe Illustrator 23.0.1, SVG Export Plug-In . SVG Version: 6.00 Build 0)  -->
<svg version="1.1" xmlns="http://www.w3.org/2000/svg" xmlns:xlink="http://www.w3.org/1999/xlink" x="0px" y="0px"
	 viewBox="0 0 50 50" style="enable-background:new 0 0 50 50;" xml:space="preserve">
<style type="text/css">
	.st0{display:none;}
</style>
<g id="White">
</g>
<g id="Black">
	<path d="M44,19.1L44,19.1l-8-6.5v2.6l4.9,4H36v2h4l-4,2.5v0l-1.8,1.1l-8.8,5.5l-11.1-6.9L14,23.2v0L10.4,21l3.6,0v-2l-4.8,0
		l4.8-3.9v-2.5L6,19l0,0l0,0v25h38L44,19.1L44,19.1z M8,21.8l15.5,9.7L8,41.2V21.8z M10.4,42l15-9.4L40.5,42H10.4z M42,40.7
		l-14.8-9.2L42,22.1V40.7z"/>
	<g>
		<g>
			<path d="M29.9,24.7L25,21.6l-4.7,3l1.4-5.4l-4.3-3.6l5.6-0.3l2-5.2l2,5.2l5.4,0.3l-4.3,3.5L29.9,24.7z M22,17.1l1.7,1.4l-0.6,2.1
				l1.9-1.2l1.8,1.1l-0.6-2.1l1.7-1.4L25.8,17L25,14.9L24.2,17L22,17.1z"/>
		</g>
		<polygon points="14,19 14,21 14,23.2 14,23.2 14.3,23.4 16,24.4 16,9 34,9 34,24.8 34.1,24.8 36,23.6 36,23.6 36,21.1 36,19.1 
			36,15.1 36,12.6 36,7 29,7 25.9,7 24.1,7 21,7 14,7 14,12.6 14,15.1 		"/>
	</g>
</g>
<g id="Grid" class="st0">
</g>
</svg>
