<?xml version="1.0" encoding="utf-8"?>
<!-- Generator: Adobe Illustrator 23.0.1, SVG Export Plug-In . SVG Version: 6.00 Build 0)  -->
<svg version="1.1" id="Black" xmlns="http://www.w3.org/2000/svg" xmlns:xlink="http://www.w3.org/1999/xlink" x="0px" y="0px"
	 viewBox="0 0 50 50" style="enable-background:new 0 0 50 50;" xml:space="preserve">
<path d="M40.5,21.6l5.9-3.4L25,5.9L3.6,18.2l5.9,3.4L3.6,25l5.9,3.4l0,0l-5.9,3.4L25,44.2l21.4-12.3l-5.9-3.4l5.9-3.4L40.5,21.6z
	 M25,8.2l17.4,10L25,28.2l-17.4-10L25,8.2z M11.5,22.8L25,30.5l13.5-7.8l3.9,2.3L25,35L7.6,25L11.5,22.8z M42.4,31.8L25,41.8
	l-17.4-10l3.9-2.3L25,37.3l13.5-7.8l0,0L42.4,31.8z"/>
</svg>
