<?xml version="1.0" encoding="utf-8"?>
<!-- Generator: Adobe Illustrator 23.0.1, SVG Export Plug-In . SVG Version: 6.00 Build 0)  -->
<svg version="1.1" id="Black" xmlns="http://www.w3.org/2000/svg" xmlns:xlink="http://www.w3.org/1999/xlink" x="0px" y="0px"
	 viewBox="0 0 50 50" style="enable-background:new 0 0 50 50;" xml:space="preserve">
<path d="M30,7.8L15.9,16H6v18h9.9L30,42.2V30.3l4-2.3v-6.1l-4-2.3V7.8z M14,32H8V18h6V32z M28,38.7l-12-6.9V18.2l12-6.9V38.7z
	 M32,23v3.8L30,28v-6.1L32,23z M36.3,33.2l-1.4-1.4c1.8-1.8,2.8-4.2,2.8-6.8c0-2.6-1-5-2.8-6.8l1.4-1.4
	C40.8,21.3,40.8,28.7,36.3,33.2z M39.4,36L38,34.6c5.3-5.3,5.3-13.9,0-19.2l1.4-1.4C45.5,20.1,45.5,29.9,39.4,36z"/>
</svg>
