<?xml version="1.0" encoding="utf-8"?>
<!-- Generator: Adobe Illustrator 23.0.1, SVG Export Plug-In . SVG Version: 6.00 Build 0)  -->
<svg version="1.1" xmlns="http://www.w3.org/2000/svg" xmlns:xlink="http://www.w3.org/1999/xlink" x="0px" y="0px"
	 viewBox="0 0 50 50" style="enable-background:new 0 0 50 50;" xml:space="preserve">
<style type="text/css">
	.st0{display:none;}
</style>
<g id="White">
</g>
<g id="Black">
	<g>
		<g>
			<polygon points="14,40 12,40 12,9.9 36,9.9 36,11.9 14,11.9 			"/>
		</g>
		<g>
			<polygon points="8.1,36 8,6 31.9,6 31.9,7.9 9.9,7.9 10,36 			"/>
		</g>
	</g>
	<g>
		<path d="M16,14v31.9h18.9l7.1-12.6l0-19.3H16z M17.9,16h22l0,15.1L28,37.7l3.7,6.3H17.9V16z M33.8,43.6l-3.1-5.2l8.7-4.7
			L33.8,43.6z"/>
		<rect x="21.3" y="28.9" width="15.4" height="2"/>
		<rect x="21.3" y="24" width="15.4" height="2"/>
		<rect x="21.3" y="19" width="15.4" height="2"/>
	</g>
</g>
<g id="Grid" class="st0">
</g>
</svg>
