<?xml version="1.0" encoding="utf-8"?>
<!-- Generator: Adobe Illustrator 23.0.1, SVG Export Plug-In . SVG Version: 6.00 Build 0)  -->
<svg version="1.1" xmlns="http://www.w3.org/2000/svg" xmlns:xlink="http://www.w3.org/1999/xlink" x="0px" y="0px"
	 viewBox="0 0 50 50" style="enable-background:new 0 0 50 50;" xml:space="preserve">
<g id="White">
</g>
<g id="Black">
	<g>
		<path d="M19,20.1c3.2,0,5.9-2.6,5.9-5.9c0-3.2-2.6-5.9-5.9-5.9c-3.2,0-5.9,2.6-5.9,5.9C13.1,17.4,15.8,20.1,19,20.1z M19,10.3
			c2.1,0,3.9,1.7,3.9,3.9c0,2.1-1.7,3.9-3.9,3.9c-2.1,0-3.9-1.7-3.9-3.9C15.1,12.1,16.9,10.3,19,10.3z"/>
		<path d="M16.1,23l2.9,4.7l2.9-4.7c0.8,0.2,2.4,0.7,3.1,2l0.1,5.4c0.1-0.1,0.3-0.1,0.4-0.2c0.6-0.3,1.1-0.7,1.6-1.1l-0.1-4.6
			l-0.1-0.2c-1.4-2.9-5.1-3.3-5.3-3.4l-0.6-0.1L19,24l-1.9-3.1L16.5,21c-3.2,0.4-5.2,3.1-5.3,3.2L11,24.5v4.8c0.6,0.5,1.3,0.9,2,1.3
			v-5.4C13.4,24.6,14.6,23.4,16.1,23z"/>
	</g>
	<path d="M44.7,38.6L32.1,26c1.1-2.1,1.8-4.5,1.8-7c0-8.3-6.7-15-14.9-15C10.7,4,4,10.7,4,19c0,8.3,6.7,15,14.9,15
		c2.5,0,4.9-0.6,7.1-1.8l3.7,3.7c4.3,4.3,8.7,8.8,8.9,8.9c0.8,0.8,1.9,1.3,3.1,1.3c0,0,0,0,0,0c1.2,0,2.2-0.5,3.1-1.3
		C46.3,43,46.3,40.3,44.7,38.6z M13,30.5c-0.7-0.4-1.4-0.8-2-1.3c-3-2.4-5-6.1-5-10.2c0-7.2,5.8-13,13-13c7.1,0,13,5.8,13,13
		c0,4-1.8,7.7-4.9,10.2c-0.5,0.4-1,0.8-1.6,1.1c-0.1,0.1-0.3,0.1-0.4,0.2c-1.9,1-4,1.5-6.1,1.5C16.8,32,14.7,31.4,13,30.5z
		 M43.3,43.3c-0.4,0.4-1,0.7-1.7,0.7h0c-0.6,0-1.2-0.2-1.7-0.7c-0.1-0.1-4.5-4.6-8.9-8.9l-3.4-3.4c1.3-0.9,2.4-2.1,3.3-3.4L43.3,40
		C44.2,40.9,44.2,42.4,43.3,43.3z"/>
</g>
</svg>
