<?xml version="1.0" encoding="utf-8"?>
<!-- Generator: Adobe Illustrator 23.0.1, SVG Export Plug-In . SVG Version: 6.00 Build 0)  -->
<svg version="1.1" id="Black" xmlns="http://www.w3.org/2000/svg" xmlns:xlink="http://www.w3.org/1999/xlink" x="0px" y="0px"
	 viewBox="0 0 50 50" style="enable-background:new 0 0 50 50;" xml:space="preserve">
<path d="M40,26v-8h-6v8h-2l-5.8-10H30v-6H8v13.2C4.4,25,2,28.7,2,33c0,6.1,4.9,11,11,11c4.3,0,8-2.4,9.8-6h5.3c0.5,3.4,3.4,6,6.9,6
	s6.4-2.6,6.9-6H46V26H40z M36,20h2v6h-2V20z M10,12h18v2H10V12z M10,16h6v6.4c-1-0.3-2-0.4-3-0.4s-2,0.2-3,0.4V16z M13,42
	c-5,0-9-4-9-9s4-9,9-9s9,4,9,9S18,42,13,42z M21.5,26c-1-1.2-2.1-2.1-3.5-2.8V16h5.9l5.8,10H21.5z M35,42c-2.8,0-5-2.2-5-5
	s2.2-5,5-5s5,2.2,5,5S37.8,42,35,42z M44,36h-2.1c-0.5-3.4-3.4-6-6.9-6s-6.4,2.6-6.9,6h-4.5c0.3-1,0.4-2,0.4-3c0-1.8-0.4-3.5-1.2-5
	H44V36z M34,36h2v2h-2V36z M12,32h2v2h-2V32z M10.1,28l-2.9,5l2.9,5h5.8l2.9-5l-2.9-5H10.1z M14.7,36h-3.5l-1.7-3l1.7-3h3.5l1.7,3
	L14.7,36z"/>
</svg>
