<?xml version="1.0" encoding="utf-8"?>
<!-- Generator: Adobe Illustrator 23.0.1, SVG Export Plug-In . SVG Version: 6.00 Build 0)  -->
<svg version="1.1" id="Black" xmlns="http://www.w3.org/2000/svg" xmlns:xlink="http://www.w3.org/1999/xlink" x="0px" y="0px"
	 viewBox="0 0 50 50" style="enable-background:new 0 0 50 50;" xml:space="preserve">
<path d="M24.9,6c-6.1,0-11.9,3-15.4,7.9l1.6,1.2C14.3,10.7,19.5,8,24.9,8c9.4,0,17,7.6,17,17s-7.6,17-17,17c-7.5,0-14.1-4.9-16.2-12
	h6.1L7.9,18L1,30h5.7c2.2,8.3,9.7,14,18.3,14c10.5,0,19-8.5,19-19S35.4,6,24.9,6z M4.4,28l3.5-6l3.5,6H4.4z M21.5,12l-0.2,0.2
	c-0.4,0.3-0.8,0.6-1.2,0.9c-2.7,2.7-2.7,7.2,0,9.9c0.6,0.6,1.2,1,1.9,1.4V35c0,1.7,1.3,3,3,3s3-1.3,3-3V24.3
	c0.7-0.3,1.4-0.8,1.9-1.4c1.3-1.3,2.1-3.1,2.1-4.9c0-1.9-0.7-3.6-2.1-4.9c-0.3-0.3-0.7-0.6-1.2-0.9L28.5,12H26v4.9l-1,0.6l-1-0.6V12
	H21.5z M25,19.8l3-1.7v-4c0.2,0.1,0.4,0.3,0.5,0.4c0.9,0.9,1.5,2.2,1.5,3.5c0,1.3-0.5,2.6-1.5,3.5c-0.5,0.5-1.1,0.9-1.9,1.2L26,23
	v12c0,0.6-0.4,1-1,1s-1-0.4-1-1V23l-0.7-0.2c-0.7-0.3-1.4-0.6-1.9-1.2c-1.9-1.9-1.9-5.1,0-7.1c0.2-0.2,0.3-0.3,0.5-0.4v4L25,19.8z"
	/>
</svg>
