<?xml version="1.0" encoding="utf-8"?>
<!-- Generator: Adobe Illustrator 23.0.1, SVG Export Plug-In . SVG Version: 6.00 Build 0)  -->
<svg version="1.1" xmlns="http://www.w3.org/2000/svg" xmlns:xlink="http://www.w3.org/1999/xlink" x="0px" y="0px"
	 viewBox="0 0 50 50" style="enable-background:new 0 0 50 50;" xml:space="preserve">
<style type="text/css">
	.st0{display:none;}
</style>
<g id="White">
</g>
<g id="Black">
	<g>
		<g>
			<path d="M38,32.5"/>
			<path d="M29,32.5"/>
			<path d="M34,28.9V16l-15,0v-2h-2v2l-15,0v25.2l15,0V43h-3.1l-1.5,2.7L11,48h13.9l-2.8-5H19v-1.7l9.1,0V48h10.9V28.9H34z
				 M36.9,30.9v10.5H30V30.9H36.9z M21,45l0.6,1h-7.1l0.6-1H21z M28,39.3L4,39.3V18.1L32,18v10.9H28V39.3z M30,46v-2.7h6.9V46H30z"
				/>
		</g>
		<rect x="32.6" y="43.8" width="1.8" height="1.8"/>
	</g>
	<g>
		<g>
			<rect x="4.7" y="23.4" transform="matrix(0.5222 -0.8528 0.8528 0.5222 -16.2683 19.782)" width="9.7" height="2"/>
		</g>
		<g>
			<rect x="4.8" y="21.2" transform="matrix(0.5252 -0.851 0.851 0.5252 -15.6654 16.2978)" width="3.9" height="2"/>
		</g>
	</g>
	<path d="M45.5,10.6c-1.4-1.3-3.1-2.1-5-2.3c-0.7-2.4-2.4-4.5-4.6-5.8C31.1-0.2,25,1.4,22.2,6.2l-1.4,2.4c-0.6-0.2-1.3-0.3-2.1-0.3
		c-4-0.2-7.6,2.7-7.9,6.4l0,0.3h2c0.2-2.7,2.8-4.8,5.9-4.7c0.9,0,1.6,0.2,2.3,0.4l0.8,0.3l2.2-3.8c2.2-3.8,7.1-5.1,10.9-2.9
		c1.9,1.1,3.3,3,3.8,5.2l0.2,0.8l0.8,0c1.7,0,3.2,0.6,4.4,1.8c1.2,1.1,1.8,2.7,1.8,4.3c0,3.3-2.7,6-6,6H35v2h4.9c4.4,0,8-3.6,8-8
		C47.9,14.2,47,12.1,45.5,10.6z"/>
</g>
<g id="Grid" class="st0">
</g>
</svg>
