<?xml version="1.0" encoding="utf-8"?>
<!-- Generator: Adobe Illustrator 23.0.1, SVG Export Plug-In . SVG Version: 6.00 Build 0)  -->
<svg version="1.1" id="Black" xmlns="http://www.w3.org/2000/svg" xmlns:xlink="http://www.w3.org/1999/xlink" x="0px" y="0px"
	 viewBox="0 0 50 50" style="enable-background:new 0 0 50 50;" xml:space="preserve">
<path d="M44,22h-6l-8-8H8.9L4,22.4V32l2,2h1c0,3.3,2.7,6,6,6s6-2.7,6-6h12c0,3.3,2.7,6,6,6s6-2.7,6-6h5v-8L44,22z M22,16h7.2l6,6H22
	V16z M20,16v6h-7.5l3.5-6H20z M10,16h3.6l-3.5,6H6.6L10,16z M13,38c-2.2,0-4-1.8-4-4s1.8-4,4-4s4,1.8,4,4S15.2,38,13,38z M37,38
	c-2.2,0-4-1.8-4-4s1.8-4,4-4s4,1.8,4,4S39.2,38,37,38z M46,32h-3.4c-0.8-2.3-3-4-5.6-4s-4.8,1.7-5.6,4H18.6c-0.8-2.3-3-4-5.6-4
	s-4.8,1.7-5.6,4H6.8L6,31.2V24h37.2l2.8,2.8V32z M22,26h6v2h-6V26z"/>
</svg>
