<?xml version="1.0" encoding="utf-8"?>
<!-- Generator: Adobe Illustrator 23.0.1, SVG Export Plug-In . SVG Version: 6.00 Build 0)  -->
<svg version="1.1" xmlns="http://www.w3.org/2000/svg" xmlns:xlink="http://www.w3.org/1999/xlink" x="0px" y="0px"
	 viewBox="0 0 50 50" style="enable-background:new 0 0 50 50;" xml:space="preserve">
<g id="White">
</g>
<g id="Black">
	<path d="M16.9,32.6c0.5,0.4,1.1,0.7,1.6,1c-0.5,0.7-1.1,1.6-1.5,2.7c-1,2.5-0.1,5.4,0,5.5l0.2,0.5l0.6,0.1c0.1,0,0.2,0,0.2,0
		c0.5,0,0.9-0.4,1.1-1.1c0-0.1,0.1-0.4,0.2-0.5c0.5-0.7,1-1,1.7-1.3c0.5-0.2,1-0.5,1.4-0.9c0.5-0.5,1.6-1.3,2-3c0.6,0,1.2,0,2,0
		c1-0.1,2.8-0.3,4.6-1.5c0.8-0.5,1.5-1.1,2-1.7c0.4-0.4,0.7-0.8,0.9-1.2l0.3-0.5l0,0l-2.3-4.4l-0.9,0.7C30.1,27.7,28,28.9,25,29
		c-2.8,0-4.9-1.1-5.9-1.8l-0.9-0.6l-0.6,0.9c-0.4,0.6-0.6,1-0.8,1.4c-0.3,0.5-0.6,1-1.1,1.8l-0.4,0.7l0,0l0.6,0.5
		C16.1,32,16.5,32.3,16.9,32.6z M18.5,29.8c0.1-0.2,0.2-0.3,0.3-0.5c1.4,0.8,3.5,1.7,6.2,1.6c2.7,0,4.7-0.9,6-1.6l0.7,1.4
		c-0.4,0.5-1.1,1.2-2,1.8c-1.4,0.9-2.8,1.1-3.7,1.2c-1.2,0.1-1.8,0-2.4-0.1l-1.1-0.2l-0.1,1.1c-0.2,1.6-1,2.2-1.5,2.7
		c-0.3,0.2-0.6,0.4-1,0.6c-0.5,0.2-1,0.5-1.5,0.9c0-0.5,0.1-1.1,0.3-1.7c0.6-1.4,1.6-2.6,1.9-3l0.9-1l-1.2-0.6
		c-0.5-0.2-1.7-1-2.5-1.6C18.2,30.5,18.3,30.2,18.5,29.8z"/>
	<g>
		<path d="M38.9,36.3c-1.4-2.8-3.2-4.4-4.8-5.4l-0.3,0.5c-0.2,0.4-0.5,0.8-0.9,1.2c1.7,1,3,2.5,4.1,4.5v7H13v-7
			c0.7-1.4,1.6-2.5,2.7-3.5c0.1-0.1,0.7-0.5,1.2-0.9c-0.4-0.3-0.8-0.6-1-0.8l-0.6-0.5c-0.5,0.3-0.9,0.6-0.9,0.6L14.4,32
			c-1.3,1.1-2.4,2.6-3.3,4.3L11,36.5V46h28v-9.5L38.9,36.3z"/>
		<g>
			<path d="M25,28c2.2,0,4.2-0.8,5.8-2h7.9v-10l0-0.1C35.7,5.4,26.9,4.7,25.1,4.7c-0.3,0-2.8-0.1-5.7,1.2c-2.8,1.2-6.4,3.9-8.1,9.9
				l0,0.1v10h7.9C20.8,27.2,22.8,28,25,28z M25,26c-4.2,0-7.6-3.5-7.6-7.7c0-0.7,0.1-1.4,0.3-2.1h3.5l3.7-3.8l3.6,3.6h3.7
				c0.2,0.7,0.3,1.5,0.3,2.3C32.5,22.5,29.1,26,25,26z M13.3,16.2c2.6-9.1,10.2-9.5,11.6-9.5c0,0,0,0,0,0l0.2,0v0c0,0,0,0,0,0
				c1.3,0,9,0.4,11.6,9.5V24h-4c1.1-1.6,1.8-3.6,1.8-5.7c0-1.2-0.2-2.3-0.6-3.4L33.5,14h-4.1l-4.4-4.4l-4.5,4.6h-4l-0.3,0.5L16,15.1
				c-0.4,1-0.5,2.1-0.5,3.2c0,2.1,0.7,4.1,1.8,5.7h-4V16.2z"/>
		</g>
	</g>
</g>
</svg>
