<?xml version="1.0" encoding="utf-8"?>
<!-- Generator: Adobe Illustrator 23.0.1, SVG Export Plug-In . SVG Version: 6.00 Build 0)  -->
<svg version="1.1" id="Black" xmlns="http://www.w3.org/2000/svg" xmlns:xlink="http://www.w3.org/1999/xlink" x="0px" y="0px"
	 viewBox="0 0 50 50" style="enable-background:new 0 0 50 50;" xml:space="preserve">
<path d="M8,34h34v6h-4v4h-2v-6h4v-2H10v2h4v6h-2v-4H8V34z M42,10h-4V6h-2v6h4v2H10v-2h4V6h-2v4H8v6h34V10z M42.3,18l0.3,0.2
	c2.1,1.6,3.4,4.1,3.4,6.8c0,2.7-1.3,5.2-3.4,6.8L42.3,32H7.7l-0.3-0.2C5.3,30.2,4,27.7,4,25c0-2.7,1.3-5.2,3.4-6.8L7.7,18H42.3z
	 M41.7,30c1.5-1.2,2.3-3.1,2.3-5c0-1.9-0.9-3.8-2.3-5H8.3C6.9,21.2,6,23.1,6,25c0,1.9,0.9,3.8,2.3,5H41.7z"/>
</svg>
