<?xml version="1.0" encoding="utf-8"?>
<!-- Generator: Adobe Illustrator 23.0.1, SVG Export Plug-In . SVG Version: 6.00 Build 0)  -->
<svg version="1.1" id="Black" xmlns="http://www.w3.org/2000/svg" xmlns:xlink="http://www.w3.org/1999/xlink" x="0px" y="0px"
	 viewBox="0 0 50 50" style="enable-background:new 0 0 50 50;" xml:space="preserve">
<path d="M12,22h12v2H12V22z M48,36l-3.5,6H5.4L2,36h4V8h38v28H48z M8,12h34v-2H8V12z M8,36h34V14H8V36z M44.6,38H44H6H5.4l1.2,2
	h36.8L44.6,38z M18,30h6v-2h-6V30z M12,20h12v-2H12V20z M36,25l2,7.4l-5-1.3l-5,1.3l2-7.4c-1.2-0.9-2-2.3-2-4c0-2.8,2.2-5,5-5
	s5,2.2,5,5C38,22.6,37.2,24.1,36,25z M35.2,29.6l-1-3.7C33.8,25.9,33.4,26,33,26c-0.4,0-0.8-0.1-1.2-0.1l-1,3.7L33,29L35.2,29.6z
	 M36,21c0-1.7-1.3-3-3-3s-3,1.3-3,3s1.3,3,3,3S36,22.7,36,21z"/>
</svg>
