<?xml version="1.0" encoding="utf-8"?>
<!-- Generator: Adobe Illustrator 23.0.1, SVG Export Plug-In . SVG Version: 6.00 Build 0)  -->
<svg version="1.1" id="Black" xmlns="http://www.w3.org/2000/svg" xmlns:xlink="http://www.w3.org/1999/xlink" x="0px" y="0px"
	 viewBox="0 0 50 50" style="enable-background:new 0 0 50 50;" xml:space="preserve">
<path d="M29.5,21.4c0.2,0.2,0.4,0.5,0.4,0.8c0,0.6-0.3,1.1-0.9,1.2l-0.1,0l-0.2,0h0c-0.6,0-1.1-0.4-1.1-1c0-0.3,0.1-0.6,0.3-0.8v0
	c0.2-0.2,0.5-0.4,0.8-0.4C28.9,21.1,29.2,21.2,29.5,21.4z M27.5,18.9c-0.2,0.2-0.2,0.5-0.2,0.9c0.1,0.5,0.6,0.9,1.1,0.9c0,0,0,0,0,0
	l0.2,0c0.3-0.1,0.5-0.2,0.7-0.5c0.2-0.3,0.2-0.5,0.2-0.9c-0.1-0.6-0.7-1-1.3-0.9C27.9,18.5,27.6,18.7,27.5,18.9z M27.7,18.1
	c0.1,0,0.2,0,0.4-0.1c0.3-0.1,0.5-0.3,0.6-0.6c0.1-0.3,0.2-0.6,0.1-0.8c-0.1-0.3-0.3-0.5-0.6-0.7c-0.3-0.1-0.6-0.2-0.9-0.1
	c-0.3,0.1-0.5,0.3-0.6,0.6c-0.1,0.3-0.2,0.6-0.1,0.9C26.8,17.7,27.2,18.1,27.7,18.1z M19.3,20.7l0.2,0c0.5,0,1-0.4,1.1-0.9
	c0.1-0.6-0.3-1.2-0.9-1.3c-0.6-0.1-1.2,0.3-1.3,0.9C18.3,20,18.7,20.5,19.3,20.7z M19,23.4l0.2,0c0.6,0,1.1-0.4,1.1-1
	c0-0.3-0.1-0.6-0.3-0.8c-0.2-0.2-0.5-0.4-0.8-0.4c-0.3,0-0.6,0.1-0.8,0.3c-0.2,0.2-0.4,0.5-0.4,0.8c0,0.3,0.1,0.6,0.3,0.8
	C18.4,23.2,18.7,23.3,19,23.4z M19.8,18c0.1,0,0.2,0.1,0.4,0.1c0.5,0,0.9-0.3,1.1-0.8c0.1-0.3,0.1-0.6-0.1-0.9
	c-0.1-0.3-0.4-0.5-0.6-0.6c-0.3-0.1-0.6-0.1-0.9,0.1c-0.3,0.1-0.5,0.4-0.6,0.6c-0.1,0.3-0.1,0.6,0.1,0.9
	C19.3,17.7,19.5,17.9,19.8,18z M19.7,31.5L19.7,31.5c0.6-0.1,1-0.7,0.9-1.3c-0.1-0.3-0.2-0.6-0.5-0.7c-0.2-0.2-0.5-0.2-0.8-0.1
	c-0.3,0.1-0.6,0.2-0.7,0.5s-0.2,0.5-0.2,0.9c0.1,0.5,0.6,0.9,1.1,0.9C19.6,31.6,19.6,31.5,19.7,31.5z M19.1,28.9l0.1,0h0
	c0.3,0,0.5-0.2,0.7-0.4c0.2-0.2,0.3-0.5,0.3-0.8c0-0.3-0.2-0.6-0.4-0.8c-0.2-0.2-0.5-0.3-0.8-0.3c-0.3,0-0.6,0.2-0.8,0.4
	c-0.2,0.2-0.3,0.5-0.3,0.8C18.1,28.4,18.6,28.9,19.1,28.9C19.1,28.9,19.1,28.9,19.1,28.9z M20.7,32.1c-0.3-0.1-0.6-0.2-0.8-0.1
	c-0.6,0.2-0.9,0.8-0.7,1.4l0,0c0.2,0.5,0.6,0.7,1.1,0.7c0.1,0,0.3,0,0.4-0.1c0.3-0.1,0.5-0.3,0.6-0.6c0.1-0.3,0.2-0.6,0.1-0.9
	C21.2,32.4,21,32.2,20.7,32.1z M28.6,29.3L28.6,29.3c-0.6-0.1-1.2,0.3-1.3,0.9c-0.1,0.6,0.3,1.2,0.9,1.3l0.2,0c0.5,0,1-0.4,1.1-0.9
	c0.1-0.3,0-0.6-0.2-0.8C29.2,29.6,28.9,29.4,28.6,29.3z M27.9,32L27.9,32c-0.6-0.1-1.2,0.3-1.3,0.9c-0.1,0.6,0.3,1.2,0.9,1.3l0.2,0
	c0.5,0,1-0.4,1.1-0.9c0.1-0.3,0-0.6-0.2-0.8C28.5,32.2,28.2,32,27.9,32z M28.9,26.6c-0.6-0.1-1.2,0.4-1.2,1c0,0.3,0.1,0.6,0.3,0.8
	c0.2,0.2,0.5,0.4,0.8,0.4l0.1,0c0.6,0,1.1-0.4,1.1-1c0-0.3-0.1-0.6-0.3-0.8C29.4,26.8,29.2,26.6,28.9,26.6z M28.9,23.9
	c-0.6,0-1.1,0.5-1.1,1.1s0.5,1.1,1.1,1.1S30,25.6,30,25S29.5,23.9,28.9,23.9z M19,26.1c0.6,0,1.1-0.5,1.1-1.1s-0.5-1.1-1.1-1.1
	s-1.1,0.5-1.1,1.1S18.4,26.1,19,26.1z M46,25c0,6.3-1.9,12.9-5.5,13v0H9.4v0c0,0,0,0,0,0h0v0c-3.6,0-5.5-6.7-5.5-13
	c0-6.2,1.9-12.8,5.4-13v0h31.2C44.1,12,46,18.7,46,25z M37.5,36c-1.6-2.5-2.5-6.8-2.5-11s0.9-8.5,2.5-11h-9.9
	c0.2,0.5,0.1,1.1-0.3,1.4c-0.2,0.1-0.4,0.2-0.7,0.2c-0.4,0-0.7-0.2-0.9-0.5l0,0c-0.2-0.3-0.2-0.8-0.1-1.1h-3.2
	c0.2,0.3,0.2,0.8-0.1,1.1c-0.2,0.3-0.6,0.5-0.9,0.5c-0.2,0-0.4-0.1-0.6-0.2c-0.3-0.2-0.4-0.4-0.5-0.7c0-0.2,0-0.5,0.1-0.7h-11v0
	C8,14,5.9,18.3,5.9,25c0,6.7,2.1,11,3.5,11h11c-0.2-0.5-0.1-1.1,0.4-1.4c0.2-0.2,0.6-0.2,0.8-0.2c0.3,0.1,0.5,0.2,0.7,0.5
	c0.2,0.4,0.2,0.8,0.1,1.1h3.2c-0.2-0.3-0.2-0.8,0.1-1.1c0.2-0.3,0.4-0.4,0.7-0.5c0.3-0.1,0.6,0,0.8,0.2c0.5,0.3,0.6,0.9,0.4,1.4
	H37.5z M44,25c0-6.7-2.1-11-3.5-11S37,18.3,37,25s2.1,11,3.5,11S44,31.7,44,25z"/>
</svg>
