<?xml version="1.0" encoding="utf-8"?>
<!-- Generator: Adobe Illustrator 23.0.1, SVG Export Plug-In . SVG Version: 6.00 Build 0)  -->
<svg version="1.1" id="Black" xmlns="http://www.w3.org/2000/svg" xmlns:xlink="http://www.w3.org/1999/xlink" x="0px" y="0px"
	 viewBox="0 0 50 50" style="enable-background:new 0 0 50 50;" xml:space="preserve">
<path d="M38,16.2C37.5,9.4,31.9,4,25,4c-6.9,0-12.5,5.4-13,12.1c-1.2,0.4-2,1.5-2,2.8v4c0,1.7,1.3,3,3,3h3.5c2,2.4,5.1,4,8.5,4
	c3.4,0,6.5-1.6,8.5-4l2.5,0v2.6l-1.7,1.7C33.9,30.1,33.5,30,33,30c-1.7,0-3,1.3-3,3c0,1.7,1.3,3,3,3c1.7,0,3-1.3,3-3
	c0-0.5-0.1-0.9-0.3-1.3l2.3-2.3v-3.6c1.2-0.4,2-1.5,2-2.8v-4C40,17.7,39.1,16.6,38,16.2z M34,34h-2v-2h2l0,0V34z M25,6
	c5.7,0,10.4,4.4,11,10h-6.5L25,11.6L20.6,16H14C14.6,10.4,19.3,6,25,6z M12,24v-6h2v1c0,1.8,0.4,3.5,1.2,5H12z M34,19c0,5-4,9-9,9
	s-9-4-9-9v-1h5.4l3.6-3.6l3.6,3.6H34h0h0V19z M38,24l-3.2,0c0.8-1.5,1.2-3.2,1.2-5v-1h2V24z M39.9,38.5l0.1,0.2V46H10v-7.3l0.1-0.2
	c1.9-3.5,6.3-6.1,10.8-6.5l0.6-0.1l3.5,6l1.5-2.6l1.7,1L25,42l-4.6-7.9c-3.9,0.5-7.1,2.9-8.5,5.2V44h26v-4.7c-0.4-0.7-1-1.4-1.6-2
	l1.4-1.5C38.6,36.6,39.3,37.6,39.9,38.5z M27.6,22.5l1.7,1C28.4,25,26.8,26,25,26s-3.4-1-4.3-2.5l1.7-1C23,23.4,23.9,24,25,24
	C26.1,24,27,23.4,27.6,22.5z"/>
</svg>
