<?xml version="1.0" encoding="utf-8"?>
<!-- Generator: Adobe Illustrator 23.0.1, SVG Export Plug-In . SVG Version: 6.00 Build 0)  -->
<svg version="1.1" xmlns="http://www.w3.org/2000/svg" xmlns:xlink="http://www.w3.org/1999/xlink" x="0px" y="0px"
	 viewBox="0 0 50 50" style="enable-background:new 0 0 50 50;" xml:space="preserve">
<g id="White">
</g>
<g id="Black">
	<path d="M36.6,14.7L36.6,14.7C36.6,9,31.1,3.9,25,3.9c-6.1,0-11.5,5-11.5,10.8h0l0,0l0.8,0.9c0,0,0.2,0.2,0.4,0.4
		c0.4,0.4,1.1,1.1,2.1,1.7c1.8,1.3,4.6,2.6,8.3,2.6c0.1,0,0.1,0,0.2,0c0.1,0,0.1,0,0.2,0c3.5,0,6.2-1.2,7.9-2.5
		c0.9-0.6,1.6-1.2,2-1.7c0.3-0.4,0.5-0.6,0.6-0.6L36.6,14.7z M26,5.9c4.2,0.5,7.9,3.8,8.5,7.7c-1.3-0.5-3.9-1.1-8.5-1.1V5.9z
		 M24,5.9v6.6c-4.5,0.1-7.2,0.7-8.5,1.1C16.1,9.8,19.8,6.4,24,5.9z M25.2,18.4c-4,0.1-6.9-1.8-8.3-3c1.4-0.4,3.9-0.8,8-0.8h0.6
		c4.1,0,6.6,0.5,7.9,0.9C32,16.6,29.2,18.4,25.2,18.4z"/>
	<g>
		<path d="M38.9,36.3c-3.5-6.9-9.5-7.2-9.8-7.2l-0.6,0L25,35.4l-3.5-6.3l-0.6,0c-0.3,0-6.2,0.2-9.8,7.2L11,36.5V46h28v-9.5
			L38.9,36.3z M37,44H13V37c2.4-4.6,6-5.6,7.4-5.8l4.7,8.3l4.7-8.3c1.4,0.2,5,1.3,7.4,5.8V44z"/>
		<path d="M33.3,17.9C33.3,22.4,29.6,26,25,26c-4.6,0-8.3-3.7-8.3-8.3l0,0c-1-0.7-1.7-1.3-2.1-1.7c0,1,0.1,1.6,0.1,1.8
			C14.8,23.4,19.4,28,25,28c5.7,0,10.3-4.6,10.3-10.3c0,0,0-0.4,0-1.5C34.9,16.7,34.2,17.3,33.3,17.9z"/>
	</g>
</g>
</svg>
