<?xml version="1.0" encoding="utf-8"?>
<!-- Generator: Adobe Illustrator 23.0.1, SVG Export Plug-In . SVG Version: 6.00 Build 0)  -->
<svg version="1.1" id="Black" xmlns="http://www.w3.org/2000/svg" xmlns:xlink="http://www.w3.org/1999/xlink" x="0px" y="0px"
	 viewBox="0 0 50 50" style="enable-background:new 0 0 50 50;" xml:space="preserve">
<path d="M12,30h26v2H12V30z M24,26h14v-2H24V26z M24,22h14v-2H24V22z M26,38v2h4l3.5,6H16.5l3.5-6h4v-2H6V8h18V6h2v2h18v30H26z
	 M21.2,42L20,44h10l-1.2-2H21.2z M42,36V10H8v26H42z M24,18h14v-2H24V18z M12,21c0-2.8,2.2-5,5-5h1v4h4v1c0,2.8-2.2,5-5,5
	S12,23.8,12,21z M14,21c0,1.7,1.3,3,3,3c1.3,0,2.4-0.8,2.8-2H16v-3.8C14.8,18.6,14,19.7,14,21z"/>
</svg>
