<?xml version="1.0" encoding="utf-8"?>
<!-- Generator: Adobe Illustrator 23.0.1, SVG Export Plug-In . SVG Version: 6.00 Build 0)  -->
<svg version="1.1" id="Black" xmlns="http://www.w3.org/2000/svg" xmlns:xlink="http://www.w3.org/1999/xlink" x="0px" y="0px"
	 viewBox="0 0 50 50" style="enable-background:new 0 0 50 50;" xml:space="preserve">
<path d="M25,14c-6.1,0-11,4.9-11,11s4.9,11,11,11s11-4.9,11-11S31.1,14,25,14z M33.9,24h-3.6l-1.7-3l1.8-3.1
	C32.4,19.3,33.7,21.5,33.9,24z M28.8,16.8L26.9,20h-3.6l-1.9-3.3c1.1-0.5,2.3-0.7,3.6-0.7C26.3,16,27.6,16.3,28.8,16.8z M28.6,25
	l-1.7,3h-3.8l-1.7-3l1.7-3h3.8L28.6,25z M19.7,17.8l1.8,3.1L19.6,24h-3.6C16.3,21.4,17.7,19.2,19.7,17.8z M16.1,26h3.6l1.8,3.2
	l-1.8,3.1C17.7,30.8,16.3,28.6,16.1,26z M21.4,33.3l1.9-3.3h3.6l1.9,3.2C27.6,33.7,26.3,34,25,34C23.7,34,22.5,33.7,21.4,33.3z
	 M30.5,32.1L28.6,29l1.7-3h3.6C33.7,28.5,32.4,30.7,30.5,32.1z M24,24h2v2h-2V24z M25,6C14.5,6,6,14.5,6,25s8.5,19,19,19
	s19-8.5,19-19S35.5,6,25,6z M40.2,32.6l-1.3-0.7L37.8,30l-1.7,1l1.4,2.4l1.7,1c-1.3,1.9-2.9,3.6-4.8,4.8l-0.6-1.1v-2.2h-2v2.8
	l0.9,1.5c-2,1-4.2,1.6-6.6,1.8v-1.2l1.1-1.9l-1.7-1L24,40.2V42c-2.4-0.1-4.6-0.8-6.6-1.8l0.6-1.1l1.9-1.1l-1-1.7l-2.4,1.4l-0.9,1.5
	c-1.9-1.3-3.6-2.9-4.8-4.8l1.1-0.6h2.2v-2h-2.8l-1.5,0.9c-1-2-1.6-4.2-1.8-6.6h1.2l1.9,1.1l1-1.7L9.8,24H8.1
	c0.1-2.4,0.8-4.6,1.8-6.6l1.1,0.6l1.1,1.9l1.7-1l-1.4-2.4l-1.5-0.9c1.3-1.9,2.9-3.6,4.8-4.8l0.6,1.1v2.2h2v-2.8l-0.9-1.5
	c2-1,4.2-1.6,6.6-1.8v1.2l-1.1,1.9l1.7,1L26,9.8V8.1c2.4,0.1,4.6,0.8,6.6,1.8L32,10.9L30.1,12l1,1.7l2.4-1.4l0.9-1.5
	c1.9,1.3,3.6,2.9,4.8,4.8l-1.1,0.6h-2.2v2h2.8l1.5-0.9c1,2,1.6,4.2,1.8,6.6h-1.2l-1.9-1.1l-1,1.7l2.4,1.4h1.8
	C41.8,28.4,41.2,30.6,40.2,32.6z"/>
</svg>
