<?xml version="1.0" encoding="utf-8"?>
<!-- Generator: Adobe Illustrator 23.0.1, SVG Export Plug-In . SVG Version: 6.00 Build 0)  -->
<svg version="1.1" id="Black" xmlns="http://www.w3.org/2000/svg" xmlns:xlink="http://www.w3.org/1999/xlink" x="0px" y="0px"
	 viewBox="0 0 50 50" style="enable-background:new 0 0 50 50;" xml:space="preserve">
<path d="M22,28h6v-6h-6V28z M24,24h2v2h-2V24z M46,28v-6l-4.5-1.2c-0.4-1.6-1-3-1.8-4.4l2.4-4.1L37.7,8l-4.1,2.4
	c-1.4-0.8-2.9-1.4-4.4-1.8L28,4h-6l-1.2,4.5c-1.6,0.4-3,1-4.4,1.8L12.3,8L8,12.3l2.4,4.1c-0.8,1.4-1.4,2.9-1.8,4.4L4,22v6l4.5,1.2
	c0.4,1.6,1,3,1.8,4.4L8,37.7l4.2,4.2l4.1-2.4c1.4,0.8,2.9,1.4,4.4,1.8L22,46h6l1.2-4.5c1.6-0.4,3-1,4.4-1.8l4.1,2.4l4.2-4.2
	l-2.4-4.1c0.8-1.4,1.4-2.9,1.8-4.4L46,28z M39.7,28.2c-0.4,1.7-1.1,3.4-2,4.9l-0.3,0.5l2.2,3.8l-2.1,2.1l-3.8-2.2l-0.5,0.3
	c-1.5,1-3.2,1.7-4.9,2l-0.6,0.1L26.5,44h-2.9l-1.1-4.2l-0.6-0.1c-1.7-0.4-3.4-1.1-4.9-2l-0.5-0.3l-3.8,2.2l-2.1-2.1l2.2-3.8
	l-0.3-0.5c-1-1.5-1.7-3.2-2-4.9l-0.1-0.6L6,26.5v-2.9l4.2-1.1l0.1-0.6c0.4-1.7,1.1-3.4,2-4.9l0.3-0.5l-2.2-3.8l2.1-2.1l3.8,2.2
	l0.5-0.3c1.5-1,3.2-1.7,4.9-2l0.6-0.1L23.5,6h2.9l1.1,4.2l0.6,0.1c1.7,0.4,3.4,1.1,4.9,2l0.5,0.3l3.8-2.2l2.1,2.1l-2.2,3.8l0.3,0.5
	c1,1.5,1.7,3.2,2,4.9l0.1,0.6l4.2,1.1v2.9l-4.2,1.1L39.7,28.2z M25,14c-6.1,0-11,4.9-11,11s4.9,11,11,11s11-4.9,11-11S31.1,14,25,14
	z M25,34c-5,0-9-4-9-9s4-9,9-9s9,4,9,9S30,34,25,34z"/>
</svg>
