<?xml version="1.0" encoding="utf-8"?>
<!-- Generator: Adobe Illustrator 23.0.1, SVG Export Plug-In . SVG Version: 6.00 Build 0)  -->
<svg version="1.1" id="Black" xmlns="http://www.w3.org/2000/svg" xmlns:xlink="http://www.w3.org/1999/xlink" x="0px" y="0px"
	 viewBox="0 0 50 50" style="enable-background:new 0 0 50 50;" xml:space="preserve">
<path d="M15.2,30l3.9,6.7c-0.6,0.6-1,1.4-1,2.3c0,1.7,1.3,3,3,3s3-1.3,3-3c0-0.4-0.1-0.7-0.2-1h2.4c-0.1,0.3-0.2,0.6-0.2,1
	c0,1.7,1.3,3,3,3s3-1.3,3-3c0-0.9-0.4-1.7-1-2.3l3.9-6.7H15.2z M22,40h-2v-2h2V40z M30,40h-2v-2h2V40z M29.1,36h-8.1l-2.3-4h12.8
	L29.1,36z M16,38H7.7L18,20.1l7,4l7-4L42.3,38H34v2h11.8L25,4L4.2,40H16V38z M25,8l6,10.4l-6,3.5l-6-3.5L25,8z M6,44h38v2H6V44z"/>
</svg>
