<?xml version="1.0" encoding="utf-8"?>
<!-- Generator: Adobe Illustrator 23.0.1, SVG Export Plug-In . SVG Version: 6.00 Build 0)  -->
<svg version="1.1" id="Black" xmlns="http://www.w3.org/2000/svg" xmlns:xlink="http://www.w3.org/1999/xlink" x="0px" y="0px"
	 viewBox="0 0 50 50" style="enable-background:new 0 0 50 50;" xml:space="preserve">
<path d="M27,16c-5.6,0-10.8,3.2-13.4,8.2C12.6,22.7,12,20.9,12,19c0-2.4,0.9-4.7,2.6-6.4c1.7-1.7,4-2.6,6.4-2.6
	c2.4,0,4.7,0.9,6.4,2.6l1.4-1.4c-4.3-4.3-11.3-4.3-15.6,0s-4.3,11.3,0,15.6c2.1,2.1,5,3.2,7.8,3.2c2.8,0,5.6-1.1,7.8-3.2l-1.4-1.4
	c-2.4,2.4-5.7,3.1-8.7,2.3C20,24.3,23.3,22,27,22c5,0,9,4,9,9s-4,9-9,9c-3.9,0-7.4-2.6-8.6-6.2c0.8,0.1,1.7,0.2,2.6,0.2
	c4,0,7.8-1.6,10.6-4.4l-1.4-1.4C27.7,30.6,24.5,32,21,32s-6.7-1.4-9.2-3.8S8,22.5,8,19s1.4-6.7,3.8-9.2c5.1-5.1,13.3-5.1,18.4,0
	l1.4-1.4c-5.8-5.8-15.4-5.8-21.2,0C7.6,11.2,6,15,6,19s1.6,7.8,4.4,10.6c0.5,0.5,1.1,1,1.6,1.4h0c0,8.3,6.7,15,15,15s15-6.7,15-15
	S35.3,16,27,16z M27,44c-6.7,0-12.3-5.1-12.9-11.7c0.7,0.4,1.4,0.6,2.2,0.9c1,5.1,5.6,8.8,10.8,8.8c6.1,0,11-4.9,11-11
	s-4.9-11-11-11c-4.5,0-8.6,2.8-10.2,6.9c-0.6-0.3-1.2-0.7-1.7-1.1C17.2,21.1,21.8,18,27,18c7.2,0,13,5.8,13,13S34.2,44,27,44z"/>
</svg>
