<?xml version="1.0" encoding="utf-8"?>
<!-- Generator: Adobe Illustrator 23.0.1, SVG Export Plug-In . SVG Version: 6.00 Build 0)  -->
<svg version="1.1" id="Black" xmlns="http://www.w3.org/2000/svg" xmlns:xlink="http://www.w3.org/1999/xlink" x="0px" y="0px"
	 viewBox="0 0 50 50" style="enable-background:new 0 0 50 50;" xml:space="preserve">
<path d="M46,12l-2-4H28v12h-2.2L20,10H6v20h2v2H7c-2.8,0-5,2.2-5,5s2.2,5,5,5h28c2.8,0,5-2.2,5-5s-2.2-5-5-5h-1v-2h2V20h-2v-6h6v9.7
	l1.4-0.6c4-1.8,6.6-5.7,6.6-10.1v-1H46z M14,12h4.8l4.6,8H14V12z M35,34c1.7,0,3,1.3,3,3s-1.3,3-3,3H7c-1.7,0-3-1.3-3-3s1.3-3,3-3
	H35z M10,32v-2h22v2H10z M34,28H8V12h4v10h22V28z M32,12v8h-2V10h12.8l1,2H32z M42,20.5V14h3.9C45.7,16.7,44.2,19,42,20.5z M26,38
	h-2v-2h2V38z M30,38h-2v-2h2V38z M34,38h-2v-2h2V38z M10,38H8v-2h2V38z M14,38h-2v-2h2V38z M18,38h-2v-2h2V38z M22,38h-2v-2h2V38z"
	/>
</svg>
