<?xml version="1.0" encoding="utf-8"?>
<!-- Generator: Adobe Illustrator 23.0.1, SVG Export Plug-In . SVG Version: 6.00 Build 0)  -->
<svg version="1.1" id="Black" xmlns="http://www.w3.org/2000/svg" xmlns:xlink="http://www.w3.org/1999/xlink" x="0px" y="0px"
	 viewBox="0 0 50 50" style="enable-background:new 0 0 50 50;" xml:space="preserve">
<path d="M10,26h6v2h-6V26z M10,32h4v-2h-4V32z M10,36h4v-2h-4V36z M44,31v13h-6v-4H22v4h-5.2H16H6V22h6v-9.6L23,6l11,6.3v18.3
	c1.5,0.5,2.8,1.3,4,2.3v-2c0-1.7,1.3-3,3-3S44,29.3,44,31z M18,28.2V24H8v18h8V31C16,29.7,16.8,28.6,18,28.2z M20,30h-1h-1v1v11h2
	v-2v-4.8V31V30z M26,32.8c-1.5,0.7-2.9,1.7-4,3V38h4V32.8z M32,32.2c-0.7-0.1-1.3-0.2-2-0.2c-0.7,0-1.3,0.1-2,0.2V38h4V32.2z
	 M32,13.5l-9-5.2l-9,5.2V22h6v6.2c1.2,0.4,2,1.5,2,2.8v2c1.2-1,2.5-1.8,4-2.3v0h0.1c1.3-0.4,2.6-0.7,3.9-0.7c0.7,0,1.3,0.1,2,0.2
	V13.5z M38,35.8c-1.1-1.3-2.5-2.3-4-3V38h4V35.8z M42,30h-1h-1v1v4.2V40v2h2V31V30z M26,16h-2v2h2V16z M20,18h2v-2h-2V18z M26,24h-2
	v2h2V24z M26,20h-2v2h2V20z M30,16h-2v2h2V16z M30,24h-2v2h2V24z M30,20h-2v2h2V20z"/>
</svg>
