<?xml version="1.0" encoding="utf-8"?>
<!-- Generator: Adobe Illustrator 23.0.1, SVG Export Plug-In . SVG Version: 6.00 Build 0)  -->
<svg version="1.1" xmlns="http://www.w3.org/2000/svg" xmlns:xlink="http://www.w3.org/1999/xlink" x="0px" y="0px"
	 viewBox="0 0 50 50" style="enable-background:new 0 0 50 50;" xml:space="preserve">
<g id="White">
</g>
<g id="Black">
	<g>
		<path d="M38.9,36.2c-3.5-6.9-9.5-7.2-9.8-7.2l-0.6,0L25,35.3L21.5,29l-0.6,0c-0.3,0-6.2,0.2-9.8,7.2L11,36.4v9.5h28v-9.5
			L38.9,36.2z M37,43.9H13v-7.1c2.4-4.6,6-5.6,7.4-5.8l4.7,8.3l4.7-8.3c1.4,0.2,5,1.3,7.4,5.8V43.9z"/>
		<path d="M14.7,18.6c0.4,5.3,4.8,9.5,10.2,9.5c5.7,0,10.3-4.6,10.3-10.3h0c0,0,0-0.1,0-0.1c0.1-0.3,1.9-7.6-3.5-11.5
			C27.2,3,23,4.6,20.3,6.2c0,0-0.1,0-0.1,0.1c-0.3,0.2-0.6,0.6-0.9,1c-0.8,0-2.7,0.3-4.3,2.1c-2.1,2.4-2.2,5.9-0.4,8.8L14.7,18.6z
			 M33.3,17.8c0,4.6-3.7,8.3-8.3,8.3c-4.2,0-7.7-3.1-8.2-7.2c0-0.1,0-0.2,0-0.3c-0.1-2,0.3-3.4,1.1-4.4c0.6-0.6,1.2-0.9,1.7-1
			c1.6,2.1,4.1,2.4,6.5,2.8l0.4,0.1c0.8,0.1,1.6,0.2,2.3,0.2C31.2,16.4,32.5,16.6,33.3,17.8L33.3,17.8z M21.3,7.9
			c3.7-2.1,6.5-2.1,9.3,0c2.8,2,3.1,5.4,3,7.5c-1.3-0.8-2.9-0.9-4.6-1.1c-0.7-0.1-1.4-0.1-2.2-0.2L26.4,14c-2.6-0.3-4.4-0.7-5.4-2.2
			c0-0.1-0.1-0.2-0.2-0.3c-0.1-0.1-0.1-0.2-0.2-0.3C19.9,9.2,21,8.1,21.3,7.9z M16.4,10.7c0.7-0.8,1.4-1.1,2-1.3
			c-0.1,0.6,0,1.3,0.2,2c-0.7,0.2-1.5,0.6-2.2,1.4c-0.5,0.5-0.9,1.2-1.2,1.9C15.1,13.3,15.5,11.8,16.4,10.7z"/>
	</g>
</g>
</svg>
