<?xml version="1.0" encoding="utf-8"?>
<!-- Generator: Adobe Illustrator 23.0.1, SVG Export Plug-In . SVG Version: 6.00 Build 0)  -->
<svg version="1.1" id="Black" xmlns="http://www.w3.org/2000/svg" xmlns:xlink="http://www.w3.org/1999/xlink" x="0px" y="0px"
	 viewBox="0 0 50 50" style="enable-background:new 0 0 50 50;" xml:space="preserve">
<path d="M26,30h-2v-2h2V30z M26,32h-2v2h2V32z M44,26v18H6V15.4l9-5.4l9,5.4V24h2V11.8c-0.8-0.3-1.5-1-1.8-1.8H22V8h2.2
	c0.4-1.2,1.5-2,2.8-2s2.4,0.8,2.8,2H40v2h-2v8h4v2H32v-2h4v-8h-6.2c-0.3,0.8-1,1.5-1.8,1.8V24h4v6h10v-4H44z M26,10h2V8h-2V10z
	 M18,24h4v-7.4l-7-4.2l-7,4.2V42h10V24z M30,26H20v16h10V26z M42,38H32v4h10V38z M42,32H32v4h10V32z M26,36h-2v2h2V36z M10,22h2v-2
	h-2V22z M10,26h2v-2h-2V26z M10,34h2v-2h-2V34z M10,30h2v-2h-2V30z M14,22h2v-2h-2V22z M14,30h2v-2h-2V30z M18,22h2v-2h-2V22z
	 M14,26h2v-2h-2V26z"/>
</svg>
