<?xml version="1.0" encoding="utf-8"?>
<!-- Generator: Adobe Illustrator 23.0.1, SVG Export Plug-In . SVG Version: 6.00 Build 0)  -->
<svg version="1.1" id="Black" xmlns="http://www.w3.org/2000/svg" xmlns:xlink="http://www.w3.org/1999/xlink" x="0px" y="0px"
	 viewBox="0 0 50 50" style="enable-background:new 0 0 50 50;" xml:space="preserve">
<path d="M40,27.8l0-5.8H30v-8H12l0,8.4L6.2,44h13.5h1.4h23.3L40,27.8z M38,24l0,3.9l2.1,8.1H23.9l2.1-7.8l0-4.2H38z M20.2,42H8.8
	l1.1-4h11.4L20.2,42z M10.4,36l3.5-13.2L14,16h14v6h-4l0,5.8L21.8,36H10.4z M23.3,38h17.4l1.1,4H22.2L23.3,38z M26.8,12H17v-2h6.3
	L21,6l10,0v2l-6.5,0L26.8,12z"/>
</svg>
