<?xml version="1.0" encoding="utf-8"?>
<!-- Generator: Adobe Illustrator 23.0.1, SVG Export Plug-In . SVG Version: 6.00 Build 0)  -->
<svg version="1.1" id="Black" xmlns="http://www.w3.org/2000/svg" xmlns:xlink="http://www.w3.org/1999/xlink" x="0px" y="0px"
	 viewBox="0 0 50 50" style="enable-background:new 0 0 50 50;" xml:space="preserve">
<path d="M18,31.9V40h2v-8c2.3-0.2,4.5-1,6.4-2.3c1,3.4,4,5.9,7.6,6.3V40h2v-4.1c4.5-0.5,8-4.3,8-8.9c0-5-4-9-9-9
	c-1.1,0-2.1,0.2-3,0.5c0-0.4,0-0.9-0.1-1.3C31,10.8,25.5,6,19,6C11.8,6,6,11.8,6,19C6,25.8,11.3,31.4,18,31.9z M35,20
	c3.9,0,7,3.1,7,7c0,3.5-2.6,6.4-6,6.9v-4.1l3.4-3.4L38,25l-2,2v-3h-2v5l-2-2l-1.4,1.4l3.4,3.4v2.1c-3.4-0.5-6-3.4-6-6.9
	C28,23.1,31.1,20,35,20z M19,8c5.5,0,10.2,4.1,10.9,9.5C30,18,30,18.5,30,19c0,0.2,0,0.4,0,0.5c-2.4,1.6-4,4.4-4,7.5
	c0,0.2,0,0.3,0,0.5c-1.7,1.4-3.8,2.3-6,2.5v-6.1l4.4-4.4L23,18l-3,3v-5h-2v9l-3-3l-1.4,1.4l4.4,4.4v2.1C12.4,29.4,8,24.7,8,19
	C8,12.9,12.9,8,19,8z M6,42h38v2H6V42z"/>
</svg>
