<?xml version="1.0" encoding="utf-8"?>
<!-- Generator: Adobe Illustrator 23.0.1, SVG Export Plug-In . SVG Version: 6.00 Build 0)  -->
<svg version="1.1" id="Black" xmlns="http://www.w3.org/2000/svg" xmlns:xlink="http://www.w3.org/1999/xlink" x="0px" y="0px"
	 viewBox="0 0 50 50" style="enable-background:new 0 0 50 50;" xml:space="preserve">
<path d="M34,24h14v2H34V24z M34,30h14v-2H34V30z M30,14v2h18v-2H30z M34,20h14v-2H34V20z M4,25c0-2.8,1.6-5.2,4-6.3V12h14v2h-3.5
	l3.5,6H24v-4h2v4h4v8h-2c0,2.2-1.8,4-4,4s-4-1.8-4-4h-2.7c-1.1,2.4-3.5,4-6.3,4C7.1,32,4,28.9,4,25z M26,28c0-1.1-0.9-2-2-2
	s-2,0.9-2,2s0.9,2,2,2S26,29.1,26,28z M17.3,22c0.4,0.9,0.7,1.9,0.7,3c0,0.3,0,0.7-0.1,1h2.6c0.7-1.2,2-2,3.4-2s2.7,0.8,3.4,2H28v-4
	H17.3z M14,18.7c0.7,0.3,1.3,0.8,1.9,1.3h3.7l-3.5-6H14V18.7z M10,18.1c0.3,0,0.7-0.1,1-0.1s0.7,0,1,0.1V14h-2V18.1z M6,25
	c0,2.8,2.2,5,5,5s5-2.2,5-5s-2.2-5-5-5S6,22.2,6,25z M8,25c0-1.7,1.3-3,3-3s3,1.3,3,3s-1.3,3-3,3S8,26.7,8,25z M10,26h2v-2h-2V26z
	 M2,40h46v-2H2V40z M2,36h46v-2H2V36z"/>
</svg>
