<?xml version="1.0" encoding="utf-8"?>
<!-- Generator: Adobe Illustrator 23.0.1, SVG Export Plug-In . SVG Version: 6.00 Build 0)  -->
<svg version="1.1" id="Black" xmlns="http://www.w3.org/2000/svg" xmlns:xlink="http://www.w3.org/1999/xlink" x="0px" y="0px"
	 viewBox="0 0 50 50" style="enable-background:new 0 0 50 50;" xml:space="preserve">
<path d="M32,24c2,0,3.9-0.8,5.3-2H44v-6c0-6.6-5.4-12-12-12c-6.6,0-12,5.4-12,12v6h6.7C28.1,23.2,30,24,32,24z M22,20v-4
	c0-5.5,4.5-10,10-10c5.5,0,10,4.5,10,10v4h-3.1c0.7-1.2,1.1-2.5,1.1-4v-4h-4.8L32,8.8L28.8,12L24,12v4c0,1.5,0.4,2.8,1.1,4H22z
	 M26,14h3.6l2.4-2.4l2.4,2.4H38v2c0,3.3-2.7,6-6,6s-6-2.7-6-6V14z M44,31.4l-0.1-0.2c-1.6-2.9-5.2-5-8.9-5.2l-0.6,0L32,30.1L29.6,26
	L29,26c-1,0.1-2,0.3-3,0.6V24H6v20h20v-4h18L44,31.4z M14,26h4v4h-4V26z M24,42H8V26h4v6h8v-6h4V42z M26,38v-9.3
	c0.8-0.3,1.7-0.6,2.5-0.7l3.5,6l3.5-6c3,0.4,5.5,2.2,6.5,3.9l0,6H26z M16,38h6v2h-6V38z"/>
</svg>
