<?xml version="1.0" encoding="utf-8"?>
<!-- Generator: Adobe Illustrator 23.0.1, SVG Export Plug-In . SVG Version: 6.00 Build 0)  -->
<svg version="1.1" id="Black" xmlns="http://www.w3.org/2000/svg" xmlns:xlink="http://www.w3.org/1999/xlink" x="0px" y="0px"
	 viewBox="0 0 50 50" style="enable-background:new 0 0 50 50;" xml:space="preserve">
<path d="M40,30V11c0-3.9-3.1-7-7-7H17c-3.9,0-7,3.1-7,7v19l4,4h4.1l-7.5,13l1.7,1l1.2-2h23.1l1.2,2l1.7-1l-7.5-13H36L40,30z
	 M14.6,44l2.3-4h16.2l2.3,4H14.6z M18.1,38l2.3-4h9.2l2.3,4H18.1z M14.8,32L12,29.2V11c0-2.8,2.2-5,5-5h16c2.8,0,5,2.2,5,5v18.2
	L35.2,32H14.8z M31,24c-1.7,0-3,1.3-3,3s1.3,3,3,3c1.7,0,3-1.3,3-3S32.7,24,31,24z M32,28h-2v-2h2V28z M14,22h22V12H14V22z M26,14h8
	v6h-8V14z M16,14h8v6h-8V14z M30,10H20V8h10V10z M19,24c-1.7,0-3,1.3-3,3s1.3,3,3,3s3-1.3,3-3S20.7,24,19,24z M20,28h-2v-2h2V28z"/>
</svg>
