<?xml version="1.0" encoding="utf-8"?>
<!-- Generator: Adobe Illustrator 23.0.1, SVG Export Plug-In . SVG Version: 6.00 Build 0)  -->
<svg version="1.1" xmlns="http://www.w3.org/2000/svg" xmlns:xlink="http://www.w3.org/1999/xlink" x="0px" y="0px"
	 viewBox="0 0 50 50" style="enable-background:new 0 0 50 50;" xml:space="preserve">
<style type="text/css">
	.st0{display:none;}
</style>
<g id="White">
</g>
<g id="Black">
	<g>
		<path d="M25.5,38.1H7.9v-7.3c2.5-4.8,6.2-5.8,7.7-6l4.8,8.5l4.8-8.5c0.8,0.1,2.2,0.5,3.7,1.5l0.1,0c0,0,0.4,0.2,0.9,0.7
			c0.7-0.2,1.5-0.4,2.3-0.4c-0.9-1.1-2-1.8-2.2-2c-2.7-1.8-5.2-1.9-5.3-1.9l-0.6,0l-3.7,6.6l-3.7-6.6l-0.6,0
			c-0.3,0-6.4,0.2-10.1,7.4L6,30.2V40h21.1C26.4,39.5,25.9,38.8,25.5,38.1z"/>
		<path d="M20.4,21.3c5.3,0,9.6-4.3,9.6-9.6c0-5.3-4.3-9.6-9.6-9.6c-5.3,0-9.6,4.3-9.6,9.6C10.8,17,15.1,21.3,20.4,21.3z M20.4,4
			c4.2,0,7.6,3.4,7.6,7.6s-3.4,7.6-7.6,7.6c-4.2,0-7.6-3.4-7.6-7.6S16.2,4,20.4,4z"/>
		<path d="M45.2,43.5c-0.1-0.1-3.5-3.5-5.9-5.9c0.5-1,0.8-2.1,0.8-3.3c0-4.3-3.5-7.8-7.8-7.8c0,0-0.1,0-0.1,0
			c-0.8,0-1.6,0.2-2.3,0.4c-3.1,1-5.3,4-5.3,7.4c0,1.4,0.4,2.7,1,3.8c0.4,0.7,0.9,1.4,1.6,2c1.4,1.3,3.2,2,5.2,2
			c1.2,0,2.3-0.3,3.3-0.8l3.3,3.3c1.4,1.4,2.5,2.5,2.6,2.6c0.5,0.5,1.2,0.8,1.9,0.8s1.4-0.3,1.9-0.8C46.2,46.1,46.2,44.5,45.2,43.5z
			 M35.2,39.3c-0.9,0.5-1.9,0.8-2.9,0.8c-3.2,0-5.8-2.6-5.8-5.8s2.6-5.8,5.8-5.8s5.8,2.6,5.8,5.8C38.1,36.3,37,38.3,35.2,39.3z
			 M43.8,45.8c-0.3,0.3-0.7,0.3-0.9,0c0,0-1.2-1.2-2.6-2.6l-3-3c0.3-0.3,0.6-0.6,0.9-0.9c2.4,2.4,5.5,5.5,5.6,5.6
			C44.1,45.1,44.1,45.5,43.8,45.8z"/>
	</g>
</g>
<g id="Grid" class="st0">
</g>
</svg>
