<?xml version="1.0" encoding="utf-8"?>
<!-- Generator: Adobe Illustrator 23.0.1, SVG Export Plug-In . SVG Version: 6.00 Build 0)  -->
<svg version="1.1" id="Black" xmlns="http://www.w3.org/2000/svg" xmlns:xlink="http://www.w3.org/1999/xlink" x="0px" y="0px"
	 viewBox="0 0 50 50" style="enable-background:new 0 0 50 50;" xml:space="preserve">
<path d="M22,38h-2v-2h2V38z M38,36h-2v2h2V36z M30,36h-2v2h2V36z M42,22v22H4l8-30h6v12.6l8-4.6v4.6l8-4.6v4.6L42,22z M16,16h-2.5
	l-7,26H16V16z M24,25.5l-6,3.5V42h6V25.5z M32,25.5l-6,3.5V42h6V25.5z M40,25.5l-6,3.5V42h6V25.5z M19.7,8H26V6h-9.8l2.3,4L12,10v2
	l10,0L19.7,8z"/>
</svg>
