<?xml version="1.0" encoding="utf-8"?>
<!-- Generator: Adobe Illustrator 23.0.1, SVG Export Plug-In . SVG Version: 6.00 Build 0)  -->
<svg version="1.1" id="Black" xmlns="http://www.w3.org/2000/svg" xmlns:xlink="http://www.w3.org/1999/xlink" x="0px" y="0px"
	 viewBox="0 0 50 50" style="enable-background:new 0 0 50 50;" xml:space="preserve">
<path d="M25,20c-1.7,0-3,1.3-3,3s1.3,3,3,3s3-1.3,3-3S26.7,20,25,20z M26,24h-2v-2h2V24z M25,36c-1.7,0-3,1.3-3,3s1.3,3,3,3
	s3-1.3,3-3S26.7,36,25,36z M26,40h-2v-2h2V40z M25,28c-1.7,0-3,1.3-3,3s1.3,3,3,3s3-1.3,3-3S26.7,28,25,28z M26,32h-2v-2h2V32z
	 M17,26c1.7,0,3-1.3,3-3s-1.3-3-3-3s-3,1.3-3,3S15.3,26,17,26z M16,22h2v2h-2V22z M17,42c1.7,0,3-1.3,3-3s-1.3-3-3-3s-3,1.3-3,3
	S15.3,42,17,42z M16,38h2v2h-2V38z M17,34c1.7,0,3-1.3,3-3s-1.3-3-3-3s-3,1.3-3,3S15.3,34,17,34z M16,30h2v2h-2V30z M10,6v40h30V6
	H10z M38,44H12V8h26V44z M33,20c-1.7,0-3,1.3-3,3s1.3,3,3,3c1.7,0,3-1.3,3-3S34.7,20,33,20z M34,24h-2v-2h2V24z M36,10H14v8h22V10z
	 M34,16H16v-4h18V16z M33,28c-1.7,0-3,1.3-3,3v8c0,1.7,1.3,3,3,3c1.7,0,3-1.3,3-3v-8C36,29.3,34.7,28,33,28z M34,40h-2V30h2V40z"/>
</svg>
