<?xml version="1.0" encoding="utf-8"?>
<!-- Generator: Adobe Illustrator 23.0.1, SVG Export Plug-In . SVG Version: 6.00 Build 0)  -->
<svg version="1.1" id="Black" xmlns="http://www.w3.org/2000/svg" xmlns:xlink="http://www.w3.org/1999/xlink" x="0px" y="0px"
	 viewBox="0 0 50 50" style="enable-background:new 0 0 50 50;" xml:space="preserve">
<path d="M25,4c-8.3,0-15,6.7-15,15c0,3.2,1.4,6.1,3.5,9.5c1.2,1.9,10.5,17.8,10.6,18L25,48l0.9-1.5c0.1-0.2,9.4-16.1,10.6-18
	c1.8-2.9,3.5-6.1,3.5-9.5C40,10.7,33.3,4,25,4z M34.8,27.5C33.8,29.1,27.4,40,25,44c-2.4-4-8.8-14.9-9.8-16.5
	C13.3,24.4,12,21.7,12,19c0-7.2,5.8-13,13-13s13,5.8,13,13C38,21.7,36.7,24.4,34.8,27.5z M25,11c-3.9,0-7,3.1-7,7c0,3.9,3.1,7,7,7
	c3.9,0,7-3.1,7-7C32,14.1,28.8,11,25,11z M25,23c-2.8,0-5-2.2-5-5s2.2-5,5-5s5,2.2,5,5S27.7,23,25,23z"/>
</svg>
