<?xml version="1.0" encoding="utf-8"?>
<!-- Generator: Adobe Illustrator 23.0.1, SVG Export Plug-In . SVG Version: 6.00 Build 0)  -->
<svg version="1.1" id="Black" xmlns="http://www.w3.org/2000/svg" xmlns:xlink="http://www.w3.org/1999/xlink" x="0px" y="0px"
	 viewBox="0 0 50 50" style="enable-background:new 0 0 50 50;" xml:space="preserve">
<path d="M24.9,18c1.7,0,3-1.3,3-3s-1.3-3-3-3s-3,1.3-3,3S23.3,18,24.9,18z M23.9,14h2v2h-2V14z M21.9,38h6V21.4l-6,1.6V38z
	 M23.9,24.5l2-0.5v12h-2V24.5z M25,46C13.4,46,4,36.6,4,25S13.4,4,25,4s21,9.4,21,21S36.6,46,25,46z M25,6C14.5,6,6,14.5,6,25
	s8.5,19,19,19s19-8.5,19-19S35.5,6,25,6z"/>
</svg>
