<?xml version="1.0" encoding="utf-8"?>
<!-- Generator: Adobe Illustrator 23.0.1, SVG Export Plug-In . SVG Version: 6.00 Build 0)  -->
<svg version="1.1" id="Black" xmlns="http://www.w3.org/2000/svg" xmlns:xlink="http://www.w3.org/1999/xlink" x="0px" y="0px"
	 viewBox="0 0 50 50" style="enable-background:new 0 0 50 50;" xml:space="preserve">
<path d="M19,12h1v2h-1c-2.8,0-5,2.2-5,5v1h-2v-1C12,15.1,15.1,12,19,12z M42.3,38.3c0,1.1-0.4,2.1-1.2,2.8s-1.8,1.2-2.8,1.2
	c-1.1,0-2.1-0.4-2.8-1.2L24.9,30.6C23.1,31.5,21.1,32,19,32c-7.2,0-13-5.8-13-13S11.8,6,19,6s13,5.8,13,13c0,2.1-0.5,4.1-1.4,5.9
	l10.6,10.6C41.9,36.3,42.3,37.3,42.3,38.3z M30,19c0-6.1-4.9-11-11-11S8,12.9,8,19s4.9,11,11,11S30,25.1,30,19z M40.3,38.3
	c0-0.5-0.2-1-0.6-1.4L29.5,26.7c-0.8,1.1-1.7,2-2.8,2.8l10.3,10.3c0.8,0.8,2.1,0.8,2.8,0C40.1,39.4,40.3,38.9,40.3,38.3z"/>
</svg>
