<?xml version="1.0" encoding="utf-8"?>
<!-- Generator: Adobe Illustrator 23.0.1, SVG Export Plug-In . SVG Version: 6.00 Build 0)  -->
<svg version="1.1" id="Black" xmlns="http://www.w3.org/2000/svg" xmlns:xlink="http://www.w3.org/1999/xlink" x="0px" y="0px"
	 viewBox="0 0 50 50" style="enable-background:new 0 0 50 50;" xml:space="preserve">
<path d="M14,4v18H4v18h4v5.9L18.2,40H26l0-8h3.7L40,37.9V32h6V4H14z M24,38h-6.3L10,42.5V38H6V24h8v8h10L24,38z M44,30h-6v4.5
	L30.3,30H16V6h28V30z M40,14H20v-2h20V14z M40,24H20v-2h20V24z M40,19H20v-2h20V19z"/>
</svg>
