<?xml version="1.0" encoding="utf-8"?>
<!-- Generator: Adobe Illustrator 23.0.1, SVG Export Plug-In . SVG Version: 6.00 Build 0)  -->
<svg version="1.1" id="Black" xmlns="http://www.w3.org/2000/svg" xmlns:xlink="http://www.w3.org/1999/xlink" x="0px" y="0px"
	 viewBox="0 0 50 50" style="enable-background:new 0 0 50 50;" xml:space="preserve">
<path d="M14,8v6H8V8H14 M16,6H6v10h10V6L16,6z M14,36v6H8v-6H14 M16,34H6v10h10V34L16,34z M14,22v6H8v-6H14 M16,20H6v10h10V20L16,20
	z M42,8v6h-6V8H42 M44,6H34v10h10V6L44,6z M42,22v6h-6v-6H42 M44,20H34v10h10V20L44,20z M28,8v6h-6V8H28 M30,6H20v10h10V6L30,6z
	 M28,36v6h-6v-6H28 M30,34H20v10h10V34L30,34z M28,22v6h-6v-6H28 M30,20H20v10h10V20L30,20z M42,36v6h-6v-6H42 M44,34H34v10h10V34
	L44,34z"/>
</svg>
