<?xml version="1.0" encoding="utf-8"?>
<!-- Generator: Adobe Illustrator 23.0.1, SVG Export Plug-In . SVG Version: 6.00 Build 0)  -->
<svg version="1.1" id="Black" xmlns="http://www.w3.org/2000/svg" xmlns:xlink="http://www.w3.org/1999/xlink" x="0px" y="0px"
	 viewBox="0 0 50 50" style="enable-background:new 0 0 50 50;" xml:space="preserve">
<path d="M26.5,36.5h-3v-3h3V36.5z M26,28.5c0-1.6,0-2.2,1-2.8l0.1-0.1c0.2-0.2,1.1-0.7,1.7-1C31.6,23,33,21,33,18.5
	c0-3.8-3-6.5-7.3-6.5c-4.1,0-7,2.6-7.7,6.9l2,0.3c0.5-3.4,2.6-5.2,5.7-5.2c2.6,0,5.3,1.4,5.3,4.5c0,1.8-1,3.1-3.2,4.3
	c-0.5,0.3-1.6,0.9-2.1,1.3C24,25.3,24,26.9,24,28.5V30h2V28.5z M25,46C13.4,46,4,36.6,4,25S13.4,4,25,4s21,9.4,21,21S36.6,46,25,46z
	 M25,6C14.5,6,6,14.5,6,25s8.5,19,19,19s19-8.5,19-19S35.5,6,25,6z"/>
</svg>
