<?xml version="1.0" encoding="utf-8"?>
<!-- Generator: Adobe Illustrator 23.0.1, SVG Export Plug-In . SVG Version: 6.00 Build 0)  -->
<svg version="1.1" id="Black" xmlns="http://www.w3.org/2000/svg" xmlns:xlink="http://www.w3.org/1999/xlink" x="0px" y="0px"
	 viewBox="0 0 50 50" style="enable-background:new 0 0 50 50;" xml:space="preserve">
<path d="M41.5,28.7c-0.5-0.9-1.3-1.5-2.3-1.7c-1-0.3-2-0.1-2.8,0.4c0,0-0.1,0.1-0.1,0.1c0,0,0-0.1-0.1-0.1c-0.5-0.9-1.3-1.5-2.3-1.7
	c-0.7-0.2-1.3-0.2-2,0V12c0-2.2-1.8-4-4-4c-1.8,0-3.2,1.1-3.8,2.7C23.6,10.3,22.8,10,22,10c-2.2,0-4,1.8-4,4v18.7l-4.9-4.5
	c-1.6-1.6-4.1-1.7-5.8-0.1l-2.7,2.8l15,15.1h18.3l4-14.4C42.1,30.6,42,29.6,41.5,28.7z M39.9,31l-3.6,13h-16l-13-13.1l1.3-1.3
	c0.8-0.8,2.1-0.8,3,0.1l8.3,7.6V14c0-1.1,0.9-2,2-2c1.1,0,2,0.9,2,1.9V28h0h2h0V14c0,0,0,0,0-0.1v-2c0-1.1,0.9-2,2-2
	c1.1,0,2,0.9,2,2v17h2v-1.2c0.4-0.3,0.9-0.4,1.5-0.3c0.4,0.1,0.8,0.4,1,0.8c0.2,0.4,0.3,0.9,0.2,1.3l1.9,0.5c0.1-0.4,0.4-0.8,0.8-1
	s0.9-0.3,1.3-0.2c0.4,0.1,0.8,0.4,1,0.8C40,30.1,40.1,30.6,39.9,31z M26,6h-2V0h2V6z M42,14h-6v2h6V14z M14,14H8v2h6V14z"/>
</svg>
