<?xml version="1.0" encoding="utf-8"?>
<!-- Generator: Adobe Illustrator 23.0.1, SVG Export Plug-In . SVG Version: 6.00 Build 0)  -->
<svg version="1.1" id="Black" xmlns="http://www.w3.org/2000/svg" xmlns:xlink="http://www.w3.org/1999/xlink" x="0px" y="0px"
	 viewBox="0 0 50 50" style="enable-background:new 0 0 50 50;" xml:space="preserve">
<path d="M11,20c-2.8,0-5,2.2-5,5s2.2,5,5,5s5-2.2,5-5S13.8,20,11,20z M11,28c-1.7,0-3-1.3-3-3c0-1.7,1.3-3,3-3c1.7,0,3,1.3,3,3
	C14,26.7,12.7,28,11,28z M25,20c-2.8,0-5,2.2-5,5s2.2,5,5,5s5-2.2,5-5S27.8,20,25,20z M25,28c-1.7,0-3-1.3-3-3c0-1.7,1.3-3,3-3
	c1.7,0,3,1.3,3,3C28,26.7,26.7,28,25,28z M39,20c-2.8,0-5,2.2-5,5s2.2,5,5,5s5-2.2,5-5S41.8,20,39,20z M39,28c-1.7,0-3-1.3-3-3
	c0-1.7,1.3-3,3-3c1.7,0,3,1.3,3,3C42,26.7,40.7,28,39,28z"/>
</svg>
