<?xml version="1.0" encoding="utf-8"?>
<!-- Generator: Adobe Illustrator 23.0.1, SVG Export Plug-In . SVG Version: 6.00 Build 0)  -->
<svg version="1.1" id="Black" xmlns="http://www.w3.org/2000/svg" xmlns:xlink="http://www.w3.org/1999/xlink" x="0px" y="0px"
	 viewBox="0 0 50 50" style="enable-background:new 0 0 50 50;" xml:space="preserve">
<path d="M36,10V6h-2v4H16V6h-2v4H6v34h38V10H36z M42,42H8V20h34V42z M42,18H8v-6h6v4h2v-4h18v4h2v-4h6V18z M28,26h-6v-2h6V26z
	 M38,38h-6v-2h6V38z M38,32h-6v-2h6V32z M38,26h-6v-2h6V26z M28,32h-6v-2h6V32z M18,32h-6v-2h6V32z M18,38h-6v-2h6V38z M28,38h-6v-2
	h6V38z M18,26h-6v-2h6V26z"/>
</svg>
