<?xml version="1.0" encoding="utf-8"?>
<!-- Generator: Adobe Illustrator 23.0.1, SVG Export Plug-In . SVG Version: 6.00 Build 0)  -->
<svg version="1.1" id="Black" xmlns="http://www.w3.org/2000/svg" xmlns:xlink="http://www.w3.org/1999/xlink" x="0px" y="0px"
	 viewBox="0 0 50 50" style="enable-background:new 0 0 50 50;" xml:space="preserve">
<path d="M38.8,34.8C35.7,39.3,30.5,42,25,42c-7.6,0-14.1-4.9-16.2-12h6.1L7.9,18L1,30h5.7c2.2,8.3,9.7,14,18.3,14
	c6.1,0,11.9-3,15.5-8L38.8,34.8z M7.9,22l3.5,6H4.4L7.9,22z M43.3,20C41.1,11.7,33.7,6,25,6c-6.1,0-11.9,3-15.5,8l1.6,1.2
	C14.3,10.7,19.5,8,25,8c7.6,0,14.1,4.9,16.2,12H35l6.9,12l6.9-12H43.3z M38.4,22h6.9l-3.5,6L38.4,22z"/>
</svg>
