<?xml version="1.0" encoding="utf-8"?>
<!-- Generator: Adobe Illustrator 23.0.1, SVG Export Plug-In . SVG Version: 6.00 Build 0)  -->
<svg version="1.1" id="Black" xmlns="http://www.w3.org/2000/svg" xmlns:xlink="http://www.w3.org/1999/xlink" x="0px" y="0px"
	 viewBox="0 0 50 50" style="enable-background:new 0 0 50 50;" xml:space="preserve">
<path d="M29.4,33.6L28,32.2l7.2-7.2L28,17.8l1.4-1.4L38,25L29.4,33.6z M22,32.2L14.8,25l7.2-7.2l-1.4-1.4L12,25l8.6,8.6L22,32.2z
	 M25,46C13.4,46,4,36.6,4,25S13.4,4,25,4s21,9.4,21,21S36.6,46,25,46z M25,6C14.5,6,6,14.5,6,25s8.5,19,19,19s19-8.5,19-19
	S35.5,6,25,6z"/>
</svg>
