<?xml version="1.0" encoding="utf-8"?>
<!-- Generator: Adobe Illustrator 23.0.1, SVG Export Plug-In . SVG Version: 6.00 Build 0)  -->
<svg version="1.1" id="Black" xmlns="http://www.w3.org/2000/svg" xmlns:xlink="http://www.w3.org/1999/xlink" x="0px" y="0px"
	 viewBox="0 0 50 50" style="enable-background:new 0 0 50 50;" xml:space="preserve">
<path d="M44,33.9c1.3-2.7,2-5.7,2-8.9s-0.7-6.2-2-8.9V16h-0.1C40.6,8.9,33.4,4,25,4S9.4,8.9,6.1,16H6v0.1c-1.3,2.7-2,5.7-2,8.9
	s0.7,6.2,2,8.9V34h0.1C9.4,41.1,16.6,46,25,46s15.6-4.9,18.9-12H44V33.9z M42.6,32h-9.2c0.3-2.2,0.5-4.5,0.5-7c0-2.5-0.2-4.8-0.5-7
	h9.2c0.9,2.2,1.4,4.5,1.4,7S43.5,29.8,42.6,32z M25,44c-2.3,0-4.8-3.8-6.1-10h12.2C29.8,40.2,27.3,44,25,44z M18.5,32
	c-0.3-2.1-0.5-4.5-0.5-7s0.2-4.9,0.5-7h13c0.3,2.1,0.5,4.5,0.5,7s-0.2,4.9-0.5,7H18.5z M25,6c2.3,0,4.8,3.8,6.1,10H18.9
	C20.2,9.8,22.7,6,25,6z M41.7,16h-8.6c-0.8-4.1-2.1-7.4-3.8-9.5C34.7,7.8,39.2,11.3,41.7,16z M20.7,6.5c-1.7,2.1-3,5.4-3.8,9.5H8.3
	C10.8,11.3,15.3,7.8,20.7,6.5z M7.4,18h9.2c-0.3,2.2-0.5,4.5-0.5,7c0,2.5,0.2,4.8,0.5,7H7.4C6.5,29.8,6,27.5,6,25S6.5,20.2,7.4,18z
	 M8.3,34h8.6c0.8,4.1,2.1,7.4,3.8,9.5C15.3,42.2,10.8,38.7,8.3,34z M29.3,43.5c1.7-2.1,3-5.4,3.8-9.5h8.6
	C39.2,38.7,34.7,42.2,29.3,43.5z"/>
</svg>
