<?xml version="1.0" encoding="utf-8"?>
<!-- Generator: Adobe Illustrator 23.0.1, SVG Export Plug-In . SVG Version: 6.00 Build 0)  -->
<svg version="1.1" id="Black" xmlns="http://www.w3.org/2000/svg" xmlns:xlink="http://www.w3.org/1999/xlink" x="0px" y="0px"
	 viewBox="0 0 50 50" style="enable-background:new 0 0 50 50;" xml:space="preserve">
<path d="M14,8v6H8V8H14 M16,6H6v10h10V6L16,6z M14,22v6H8v-6H14 M16,20H6v10h10V20L16,20z M44,10H20v2h24V10z M44,24H20v2h24V24z
	 M14,36v6H8v-6H14 M16,34H6v10h10V34L16,34z M44,38H20v2h24V38z"/>
</svg>
