<?xml version="1.0" encoding="utf-8"?>
<!-- Generator: Adobe Illustrator 23.0.1, SVG Export Plug-In . SVG Version: 6.00 Build 0)  -->
<svg version="1.1" id="Black" xmlns="http://www.w3.org/2000/svg" xmlns:xlink="http://www.w3.org/1999/xlink" x="0px" y="0px"
	 viewBox="0 0 50 50" style="enable-background:new 0 0 50 50;" xml:space="preserve">
<path d="M46,28v-6l-4.5-1.2c-0.4-1.6-1-3.1-1.8-4.4l2.4-4.1L37.7,8l-4.1,2.4c-1.4-0.8-2.9-1.4-4.4-1.8L28,4h-6l-1.2,4.5
	c-1.6,0.4-3.1,1-4.4,1.8L12.3,8L8,12.3l2.4,4.1c-0.8,1.4-1.4,2.9-1.8,4.4L4,22v6l4.5,1.2c0.4,1.6,1,3.1,1.8,4.4L8,37.7l4.2,4.2
	l4.1-2.4c1.4,0.8,2.9,1.4,4.4,1.8L22,46h6l1.2-4.5c1.6-0.4,3.1-1,4.4-1.8l4.1,2.4l4.2-4.2l-2.4-4.1c0.8-1.4,1.4-2.9,1.8-4.4L46,28z
	 M39.8,27.6l-0.3,1.1c-0.4,1.4-0.9,2.7-1.6,3.9l-0.6,1l0.6,1l1.6,2.7l-2.1,2.1l-2.7-1.6l-1-0.6l-1,0.6c-1.2,0.7-2.5,1.3-3.9,1.6
	l-1.1,0.3l-0.3,1.1L26.5,44h-2.9l-0.8-3.1l-0.3-1.1l-1.1-0.3c-1.4-0.4-2.7-0.9-3.9-1.6l-1-0.6l-1,0.6l-2.7,1.6l-2.1-2.1l1.6-2.7
	l0.6-1l-0.6-1c-0.7-1.2-1.3-2.5-1.6-3.9l-0.3-1.1l-1.1-0.3L6,26.5v-2.9l3.1-0.8l1.1-0.3l0.3-1.1c0.4-1.4,0.9-2.7,1.6-3.9l0.6-1
	l-0.6-1l-1.6-2.7l2.1-2.1l2.7,1.6l1,0.6l1-0.6c1.2-0.7,2.5-1.3,3.9-1.6l1.1-0.3l0.3-1.1L23.5,6h2.9l0.8,3.1l0.3,1.1l1.1,0.3
	c1.4,0.4,2.7,0.9,3.9,1.6l1,0.6l1-0.6l2.7-1.6l2.1,2.1l-1.6,2.7l-0.6,1l0.6,1c0.7,1.2,1.3,2.5,1.6,3.9l0.3,1.1l1.1,0.3l3.1,0.8v2.9
	l-3.1,0.8L39.8,27.6z M25,33c-4.4,0-8-3.6-8-8s3.6-8,8-8s8,3.6,8,8S29.4,33,25,33z M25,19c-3.3,0-6,2.7-6,6s2.7,6,6,6s6-2.7,6-6
	S28.3,19,25,19z"/>
</svg>
