<?xml version="1.0" encoding="utf-8"?>
<!-- Generator: Adobe Illustrator 23.0.1, SVG Export Plug-In . SVG Version: 6.00 Build 0)  -->
<svg version="1.1" id="Black" xmlns="http://www.w3.org/2000/svg" xmlns:xlink="http://www.w3.org/1999/xlink" x="0px" y="0px"
	 viewBox="0 0 50 50" style="enable-background:new 0 0 50 50;" xml:space="preserve">
<path d="M25,6c-7.7,0-14,6.3-14,14s6.3,14,14,14s14-6.3,14-14S32.7,6,25,6z M25,32c-6.6,0-12-5.4-12-12S18.4,8,25,8s12,5.4,12,12
	S31.6,32,25,32z M24,26h2v2h-2V26z M30.4,16.4c0,1.8-0.9,3.1-2.9,4.2c-0.3,0.2-0.9,0.5-1,0.6l-0.1,0.1C26,21.5,26,21.7,26,22.7v1h-2
	v-1c0-1,0-2.2,1.3-3.1c0.3-0.3,1-0.6,1.3-0.8c1.3-0.7,1.8-1.4,1.8-2.4c0-1.8-1.6-2.5-3-2.5c-2.3,0-3,1.6-3.3,3l-2-0.3
	c0.5-2.9,2.4-4.7,5.2-4.7C28.4,11.9,30.4,13.8,30.4,16.4z M48,40H2V24h2v14h42V24h2V40z"/>
</svg>
